<?xml version="1.0" encoding="UTF-8"?>
<svg xmlns="http://www.w3.org/2000/svg" xmlns:xlink="http://www.w3.org/1999/xlink" width="256pt" height="256pt" viewBox="0 0 256 256" version="1.1">
<g id="surface1">
<path style=" stroke:none;fill-rule:nonzero;fill:rgb(80%,0%,0%);fill-opacity:1;" d="M 127.976562 0.03125 C 93.605469 0.03125 62.03125 13.128906 37.671875 37.484375 C 13.316406 61.839844 0.21875 93.417969 0.21875 127.789062 C 0.21875 162.160156 13.316406 193.734375 37.671875 218.089844 C 58.125 238.542969 83.6875 251.058594 112.617188 254.78125 C 123.976562 256.246094 141.390625 255.503906 153.804688 253.03125 C 198.496094 244.125 236.679688 209.507812 250.0625 165.765625 C 264.101562 119.871094 252.058594 71.261719 218.28125 37.484375 C 193.921875 13.128906 162.347656 0.03125 127.976562 0.03125 Z M 126.8125 10.050781 C 145.300781 9.882812 163.777344 14.070312 180.617188 22.507812 C 203.695312 34.070312 221.695312 52.066406 233.257812 75.148438 C 249.878906 108.324219 249.878906 147.253906 233.257812 180.429688 C 227.457031 192.003906 221.679688 200.144531 212.476562 209.703125 C 193.003906 229.929688 167.222656 242.261719 138.546875 245.0625 C 117.160156 247.152344 95.089844 242.964844 75.335938 233.066406 C 63.757812 227.269531 55.621094 221.492188 46.0625 212.289062 C 9.191406 176.796875 -0.304688 121.058594 22.695312 75.148438 C 36.523438 47.550781 60.273438 26.671875 89.363281 16.546875 C 101.507812 12.320312 114.164062 10.167969 126.8125 10.050781 Z M 126.8125 10.050781 "/>
<path style=" stroke:none;fill-rule:nonzero;fill:rgb(80%,0%,0%);fill-opacity:1;" d="M 167.183594 84.597656 L 157.683594 94.628906 L 157.683594 194.957031 L 85.160156 194.957031 L 85.160156 84.597656 L 167.144531 84.597656 M 167.144531 78.289062 L 85.160156 78.289062 C 81.679688 78.289062 78.855469 81.113281 78.855469 84.597656 L 78.855469 194.957031 C 78.855469 198.441406 81.679688 201.265625 85.160156 201.265625 L 157.605469 201.265625 C 161.085938 201.265625 163.992188 198.441406 163.992188 194.957031 L 163.992188 97.148438 L 171.753906 88.945312 C 173.492188 87.117188 173.957031 84.429688 172.960938 82.109375 C 171.964844 79.792969 169.675781 78.289062 167.152344 78.289062 Z M 167.144531 78.289062 "/>
<path style=" stroke:none;fill-rule:nonzero;fill:rgb(80%,0%,0%);fill-opacity:1;" d="M 171.738281 43.953125 C 170.183594 43.15625 168.285156 43.773438 167.492188 45.320312 L 117.597656 139.777344 L 124.6875 139.777344 L 173.101562 48.199219 C 173.898438 46.648438 173.289062 44.75 171.738281 43.953125 Z M 171.738281 43.953125 "/>
<path style=" stroke:none;fill-rule:nonzero;fill:rgb(80%,0%,0%);fill-opacity:1;" d="M 124.683594 139.777344 L 103.734375 180.632812 C 103.175781 181.722656 102.070312 182.34375 100.925781 182.34375 C 100.441406 182.34375 99.949219 182.234375 99.488281 181.996094 C 97.941406 181.203125 97.328125 179.304688 98.125 177.753906 L 117.597656 139.777344 L 91.46875 139.777344 L 91.46875 188.652344 L 151.378906 188.652344 L 151.378906 139.777344 Z M 127.734375 167.546875 C 124.851562 167.546875 122.515625 165.210938 122.515625 162.332031 C 122.515625 159.453125 124.851562 157.117188 127.734375 157.117188 C 130.609375 157.117188 132.945312 159.453125 132.945312 162.332031 C 132.945312 165.210938 130.609375 167.546875 127.734375 167.546875 Z M 139.554688 180.160156 C 137.984375 180.160156 136.707031 178.882812 136.707031 177.3125 C 136.707031 175.738281 137.984375 174.457031 139.554688 174.457031 C 141.128906 174.457031 142.40625 175.738281 142.40625 177.3125 C 142.40625 178.886719 141.128906 180.160156 139.554688 180.160156 Z M 139.554688 180.160156 "/>
<path style="fill:none;stroke-width:7.735;stroke-linecap:butt;stroke-linejoin:miter;stroke:rgb(80%,0%,0%);stroke-opacity:1;stroke-miterlimit:10;" d="M 112.192142 159.841217 L 127.663121 159.841217 " transform="matrix(0.815287,0,0,0.815287,0,0)"/>
<path style="fill:none;stroke-width:7.735;stroke-linecap:butt;stroke-linejoin:miter;stroke:rgb(80%,0%,0%);stroke-opacity:1;stroke-miterlimit:10;" d="M 112.192142 144.375031 L 127.663121 144.375031 " transform="matrix(0.815287,0,0,0.815287,0,0)"/>
<path style="fill:none;stroke-width:7.735;stroke-linecap:butt;stroke-linejoin:miter;stroke:rgb(80%,0%,0%);stroke-opacity:1;stroke-miterlimit:10;" d="M 112.192142 128.904053 L 127.663121 128.904053 " transform="matrix(0.815287,0,0,0.815287,0,0)"/>
</g>
</svg>
