<?xml version="1.0" encoding="UTF-8"?>
<svg xmlns="http://www.w3.org/2000/svg" xmlns:xlink="http://www.w3.org/1999/xlink" width="256pt" height="256pt" viewBox="0 0 256 256" version="1.1">
<g id="surface1">
<path style=" stroke:none;fill-rule:nonzero;fill:rgb(50.196078%,64.313725%,68.235294%);fill-opacity:1;" d="M 128.128906 -0.164062 C 93.707031 -0.164062 62.078125 12.957031 37.683594 37.359375 C 13.289062 61.765625 0.171875 93.40625 0.171875 127.84375 C 0.171875 162.28125 13.289062 193.921875 37.683594 218.324219 C 58.167969 238.816406 83.773438 251.355469 112.746094 255.085938 C 124.125 256.554688 141.566406 255.808594 154 253.332031 C 198.761719 244.410156 237.003906 209.726562 250.40625 165.894531 C 264.46875 119.910156 252.410156 71.207031 218.578125 37.359375 C 194.183594 12.957031 162.554688 -0.164062 128.128906 -0.164062 Z M 126.964844 9.875 C 145.484375 9.707031 163.988281 13.902344 180.855469 22.355469 C 203.96875 33.941406 221.996094 51.972656 233.578125 75.097656 C 250.222656 108.339844 250.222656 147.347656 233.578125 180.585938 C 227.769531 192.1875 221.980469 200.339844 212.765625 209.917969 C 193.261719 230.1875 167.4375 242.542969 138.71875 245.351562 C 117.296875 247.445312 95.191406 243.246094 75.40625 233.332031 C 63.8125 227.519531 55.660156 221.730469 46.085938 212.511719 C 9.15625 176.945312 -0.355469 121.101562 22.683594 75.097656 C 36.53125 47.445312 60.320312 26.527344 89.457031 16.382812 C 101.617188 12.148438 114.296875 9.988281 126.964844 9.875 Z M 126.964844 9.875 "/>
<path style=" stroke:none;fill-rule:evenodd;fill:rgb(50.196078%,64.313725%,68.235294%);fill-opacity:1;" d="M 161.714844 114.464844 C 165.046875 122.121094 165.894531 131.121094 163.375 139.765625 C 157.648438 159.414062 137.066406 170.707031 117.414062 164.976562 C 111.242188 163.179688 105.898438 159.914062 101.644531 155.675781 L 91.855469 162.492188 C 100.78125 172.183594 113.578125 178.253906 127.789062 178.253906 C 136.6875 178.253906 145.035156 175.871094 152.222656 171.714844 L 158.117188 181.929688 C 150.804688 186.164062 142.523438 188.914062 133.683594 189.765625 L 133.683594 201.601562 C 170.933594 198.601562 200.238281 167.414062 200.238281 129.394531 C 200.238281 122.085938 199.148438 115.03125 197.136719 108.378906 L 208.402344 104.882812 C 210.761719 112.640625 212.03125 120.867188 212.03125 129.394531 C 212.03125 175.914062 174.304688 213.636719 127.789062 213.636719 C 81.269531 213.636719 43.546875 175.914062 43.546875 129.394531 C 43.546875 82.878906 81.269531 45.152344 127.789062 45.152344 C 155.660156 45.152344 180.371094 58.699219 195.707031 79.5625 L 195.667969 79.554688 L 186.222656 86.574219 C 183.5625 82.949219 180.574219 79.578125 177.300781 76.511719 L 170.035156 85.878906 C 181.386719 96.902344 188.441406 112.324219 188.441406 129.394531 C 188.441406 140.441406 185.484375 150.800781 180.324219 159.722656 L 170.105469 153.824219 C 174.265625 146.636719 176.648438 138.292969 176.648438 129.394531 C 176.648438 104.410156 157.886719 83.800781 133.683594 80.886719 L 133.683594 92.796875 C 135.179688 93.035156 136.671875 93.371094 138.160156 93.804688 L 134.859375 105.128906 C 121.460938 101.222656 107.429688 108.921875 103.523438 122.320312 C 99.621094 135.714844 107.320312 149.75 120.71875 153.652344 C 134.117188 157.558594 148.144531 149.859375 152.050781 136.464844 C 152.164062 136.074219 152.269531 135.679688 152.367188 135.289062 L 139.910156 135.289062 C 137.722656 139.78125 133.117188 142.875 127.789062 142.875 C 120.347656 142.875 114.308594 136.835938 114.308594 129.394531 C 114.308594 121.953125 120.347656 115.914062 127.789062 115.914062 C 133.117188 115.914062 137.722656 119.007812 139.910156 123.496094 L 152.386719 123.496094 C 152.03125 122.03125 151.539062 120.597656 150.921875 119.210938 L 161.714844 114.460938 Z M 94.71875 146.125 C 90.621094 138.027344 89.464844 128.417969 92.203125 119.019531 C 96.335938 104.835938 108.214844 95.007812 121.890625 92.792969 L 121.890625 80.890625 C 100.496094 83.464844 83.351562 99.871094 79.664062 120.910156 L 68.046875 118.859375 C 69.871094 108.464844 74.339844 98.984375 80.730469 91.132812 L 72.21875 82.921875 C 61.6875 95.503906 55.339844 111.710938 55.339844 129.394531 C 55.339844 167.414062 84.644531 198.601562 121.890625 201.601562 L 121.890625 189.761719 C 94.667969 187.136719 72.707031 166.507812 68.046875 139.925781 L 79.664062 137.878906 C 80.605469 143.246094 82.421875 148.3125 84.960938 152.921875 Z M 168.066406 69.171875 C 156.546875 61.453125 142.691406 56.945312 127.789062 56.945312 C 109.714844 56.945312 93.183594 63.570312 80.496094 74.519531 L 89.027344 82.75 C 99.535156 74.003906 113.050781 68.742188 127.789062 68.742188 C 139.96875 68.742188 151.3125 72.339844 160.816406 78.519531 Z M 168.066406 69.171875 "/>
</g>
</svg>
