<?xml version="1.0" encoding="UTF-8"?>
<svg xmlns="http://www.w3.org/2000/svg" xmlns:xlink="http://www.w3.org/1999/xlink" width="256pt" height="256pt" viewBox="0 0 256 256" version="1.1">
<g id="surface1">
<path style=" stroke:none;fill-rule:nonzero;fill:rgb(53.333333%,0%,66.666667%);fill-opacity:1;" d="M 127.976562 0.03125 C 93.605469 0.03125 62.03125 13.128906 37.671875 37.484375 C 13.316406 61.839844 0.21875 93.417969 0.21875 127.789062 C 0.21875 162.160156 13.316406 193.734375 37.671875 218.089844 C 58.125 238.542969 83.6875 251.058594 112.617188 254.78125 C 123.976562 256.246094 141.390625 255.503906 153.804688 253.03125 C 198.496094 244.125 236.679688 209.507812 250.0625 165.765625 C 264.101562 119.871094 252.058594 71.261719 218.28125 37.484375 C 193.921875 13.128906 162.347656 0.03125 127.976562 0.03125 Z M 126.8125 10.050781 C 145.300781 9.882812 163.777344 14.070312 180.617188 22.507812 C 203.695312 34.070312 221.695312 52.066406 233.257812 75.148438 C 249.878906 108.324219 249.878906 147.253906 233.257812 180.429688 C 227.457031 192.003906 221.679688 200.144531 212.476562 209.703125 C 193.003906 229.929688 167.222656 242.261719 138.546875 245.0625 C 117.160156 247.152344 95.089844 242.964844 75.335938 233.066406 C 63.757812 227.269531 55.621094 221.492188 46.0625 212.289062 C 9.191406 176.796875 -0.304688 121.058594 22.695312 75.148438 C 36.523438 47.550781 60.273438 26.671875 89.363281 16.546875 C 101.507812 12.320312 114.164062 10.167969 126.8125 10.050781 Z M 126.8125 10.050781 "/>
<path style=" stroke:none;fill-rule:nonzero;fill:rgb(53.333333%,0%,66.666667%);fill-opacity:1;" d="M 200.328125 93.808594 L 177.59375 71.433594 L 173.980469 67.820312 L 170.378906 71.433594 L 147.628906 93.417969 L 154.84375 100.660156 L 169.292969 86.566406 L 169.292969 95.960938 C 169.292969 110.761719 157.730469 122.304688 142.941406 122.65625 L 85.171875 122.65625 C 83.007812 115.058594 75.785156 109.667969 67.484375 109.667969 C 57.375 109.667969 49.082031 117.96875 49.082031 128.058594 C 49.082031 138.171875 57.375 146.46875 67.484375 146.46875 C 75.785156 146.46875 83.019531 140.714844 85.171875 133.480469 L 142.941406 133.480469 C 157.730469 133.832031 169.292969 145.375 169.292969 160.175781 L 169.292969 166.671875 L 154.84375 152.597656 L 147.628906 160.175781 L 170.378906 182.179688 L 173.980469 185.789062 L 177.59375 182.179688 L 200.328125 159.46875 L 193.097656 152.246094 L 179.394531 165.957031 L 179.394531 160.175781 C 179.394531 146.097656 171.464844 134.207031 160.257812 128.070312 C 171.464844 121.570312 179.394531 110.046875 179.394531 95.980469 L 179.394531 87.308594 L 193.097656 101.023438 Z M 75.777344 128.058594 C 75.777344 132.765625 72.164062 136.378906 67.476562 136.378906 C 63.140625 136.378906 59.175781 132.765625 59.175781 128.058594 C 59.175781 123.722656 63.140625 119.757812 67.476562 119.757812 C 72.164062 119.757812 75.777344 123.722656 75.777344 128.058594 Z M 75.777344 128.058594 "/>
</g>
</svg>
