<?xml version="1.0" encoding="UTF-8" standalone="no"?>
<!-- Generator: Adobe Illustrator 16.0.0, SVG Export Plug-In . SVG Version: 6.00 Build 0)  -->

<svg
   xmlns:dc="http://purl.org/dc/elements/1.1/"
   xmlns:cc="http://creativecommons.org/ns#"
   xmlns:rdf="http://www.w3.org/1999/02/22-rdf-syntax-ns#"
   xmlns:svg="http://www.w3.org/2000/svg"
   xmlns="http://www.w3.org/2000/svg"
   xmlns:sodipodi="http://sodipodi.sourceforge.net/DTD/sodipodi-0.dtd"
   xmlns:inkscape="http://www.inkscape.org/namespaces/inkscape"
   version="1.1"
   id="Layer_1"
   x="0px"
   y="0px"
   width="2000"
   height="1000"
   viewBox="0 0 2000 1000"
   enable-background="new 0 0 466 423.891"
   xml:space="preserve"
   inkscape:version="0.91 r13725"
   sodipodi:docname="docker plex.svg"><metadata
     id="metadata41"><rdf:RDF><cc:Work
         rdf:about=""><dc:format>image/svg+xml</dc:format><dc:type
           rdf:resource="http://purl.org/dc/dcmitype/StillImage" /><dc:title></dc:title></cc:Work></rdf:RDF></metadata><defs
     id="defs39"><pattern
       y="0"
       x="0"
       height="6"
       width="6"
       patternUnits="userSpaceOnUse"
       id="EMFhbasepattern" /></defs><sodipodi:namedview
     pagecolor="#ffffff"
     bordercolor="#666666"
     borderopacity="1"
     objecttolerance="10"
     gridtolerance="10"
     guidetolerance="10"
     inkscape:pageopacity="0.00392157"
     inkscape:pageshadow="2"
     inkscape:window-width="1920"
     inkscape:window-height="1017"
     id="namedview37"
     showgrid="false"
     inkscape:zoom="2.2269876"
     inkscape:cx="717.71873"
     inkscape:cy="764.23663"
     inkscape:window-x="1912"
     inkscape:window-y="-8"
     inkscape:window-maximized="1"
     inkscape:current-layer="Layer_1" /><rect
     x="-43.5"
     y="613.11401"
     display="none"
     width="792"
     height="612"
     id="rect3"
     style="clip-rule:evenodd;display:none;fill:#e7e7e7;fill-rule:evenodd" /><path
     style="clip-rule:evenodd;fill-rule:evenodd;fill-opacity:1;fill:#f67f00"
     inkscape:connector-curvature="0"
     d="m 1026.7734,396.18962 72.58,0 0,75.25362 36.6964,0 c 16.9465,0 34.3764,-3.06361 50.4254,-8.57873 7.8867,-2.71072 16.7371,-6.48636 24.5176,-11.23168 -10.2467,-13.56763 -15.4763,-30.70011 -17.0173,-47.58744 -2.0906,-22.96927 2.477,-52.86367 17.8024,-70.84091 l 7.6297,-8.95036 9.0906,7.41231 c 22.8873,18.65336 42.1384,44.71746 45.5329,74.42761 27.5581,-8.22272 59.9178,-6.27712 84.2107,7.94477 l 9.9681,5.83054 -5.2465,10.38692 c -20.5443,40.67012 -63.4971,53.26652 -105.4908,51.03986 -62.8367,158.74402 -199.6388,233.89928 -365.51389,233.89928 -85.69627,0 -164.3202,-32.49425 -209.09268,-109.61072 l -0.73433,-1.26011 -6.52428,-13.46145 C 660.47441,556.91827 655.44803,519.73179 658.85796,482.57342 l 1.02221,-11.12862 62.06383,0 0,-75.25362 72.57535,0 0,-73.61564 145.15993,0 0,-73.6172 87.09412,0 0,147.23128 z"
     id="outline_7_" /><g
     style="display:none"
     id="g8"
     display="none"
     transform="matrix(1.5394724,0,0,1.5614729,654.01632,133.1111)"><path
       style="display:inline;fill:#394d54"
       inkscape:connector-curvature="0"
       id="path10"
       d="m 61.093,319.89 c 6.023,0 11.763,-0.157 17.219,-0.464 0.476,-0.026 0.932,-0.063 1.402,-0.092 0.005,-0.002 0.008,-0.002 0.012,-0.002 13.872,-0.855 25.876,-2.708 35.902,-5.57 0.002,-0.002 0.004,-0.002 0.006,-0.002 1.823,-0.521 3.588,-1.07 5.282,-1.656 1.894,-0.657 2.896,-2.725 2.241,-4.618 -0.656,-1.895 -2.722,-2.899 -4.618,-2.24 -12.734,4.412 -29.535,6.842 -50.125,7.298 -0.002,0 -0.004,0 -0.005,0 -10.477,0.232 -21.93,-0.044 -34.352,-0.843 0,0 0,0 -0.001,0 -0.635,-0.038 -1.259,-0.075 -1.9,-0.118 -1.995,-0.128 -3.731,1.374 -3.869,3.375 -0.136,1.999 1.376,3.73 3.375,3.866 2.537,0.173 5.03,0.321 7.49,0.453 0.392,0.021 0.77,0.034 1.158,0.054 l 0,0 c 7.256,0.366 14.194,0.559 20.783,0.559 z"
       display="inline" /></g><path
     d="m 786.7327,413.77648 4.96787,0 0,53.17128 -4.96787,0 0,-53.17128 z m -9.5278,0 5.16339,0 0,53.17128 -5.16339,0 0,-53.17128 z m -9.53241,0 5.16339,0 0,53.17128 -5.16339,0 0,-53.17128 z m -9.53241,0 5.16339,0 0,53.17128 -5.16339,0 0,-53.17128 z m -9.52934,0 5.16339,0 0,53.17128 -5.16339,0 0,-53.17128 z m -9.33228,0 4.96326,0 0,53.17128 -4.96326,0 0,-53.17128 z m -5.23883,-5.31837 62.89977,0 0,63.80178 -62.89977,0 0,-63.80178 z"
     id="path13"
     inkscape:connector-curvature="0"
     style="clip-rule:evenodd;fill:#ffffff;fill-rule:evenodd;fill-opacity:1" /><path
     d="m 859.31112,340.15928 4.97096,0 0,53.16972 -4.97096,0 0,-53.16972 z m -9.52779,0 5.16339,0 0,53.16972 -5.16339,0 0,-53.16972 z m -9.53242,0 5.1634,0 0,53.16972 -5.1634,0 0,-53.16972 z m -9.53241,0 5.16339,0 0,53.16972 -5.16339,0 0,-53.16972 z m -9.52625,0 5.16031,0 0,53.16972 -5.16031,0 0,-53.16972 z m -9.33229,0 4.96018,0 0,53.16972 -4.96018,0 0,-53.16972 z m -5.24498,-5.31681 62.90746,0 0,63.80022 -62.90746,0 0,-63.80022 z"
     id="path15"
     inkscape:connector-curvature="0"
     style="clip-rule:evenodd;fill:#ffffff;fill-rule:evenodd;fill-opacity:1" /><path
     d="m 859.31112,413.77648 4.97096,0 0,53.17128 -4.97096,0 0,-53.17128 z m -9.52779,0 5.16339,0 0,53.17128 -5.16339,0 0,-53.17128 z m -9.53242,0 5.1634,0 0,53.17128 -5.1634,0 0,-53.17128 z m -9.53241,0 5.16339,0 0,53.17128 -5.16339,0 0,-53.17128 z m -9.52625,0 5.16031,0 0,53.17128 -5.16031,0 0,-53.17128 z m -9.33229,0 4.96018,0 0,53.17128 -4.96018,0 0,-53.17128 z m -5.24498,-5.31837 62.90746,0 0,63.80178 -62.90746,0 0,-63.80178 z"
     id="path17"
     inkscape:connector-curvature="0"
     style="clip-rule:evenodd;fill:#ffffff;fill-rule:evenodd;fill-opacity:1" /><path
     d="m 931.89263,413.77648 4.9648,0 0,53.17128 -4.9648,0 0,-53.17128 z m -9.53088,0 5.16493,0 0,53.17128 -5.16493,0 0,-53.17128 z m -9.52933,0 5.16339,0 0,53.17128 -5.16339,0 0,-53.17128 z m -9.53241,0 5.16339,0 0,53.17128 -5.16339,0 0,-53.17128 z m -9.53242,0 5.16339,0 0,53.17128 -5.16339,0 0,-53.17128 z m -9.3292,0 4.96018,0 0,53.17128 -4.96018,0 0,-53.17128 z m -5.2419,-5.31837 62.90438,0 0,63.80178 -62.90438,0 0,-63.80178 z"
     id="path19"
     inkscape:connector-curvature="0"
     style="clip-rule:evenodd;fill:#ffffff;fill-rule:evenodd;fill-opacity:1" /><path
     d="m 931.89263,340.15928 4.9648,0 0,53.16972 -4.9648,0 0,-53.16972 z m -9.53088,0 5.16493,0 0,53.16972 -5.16493,0 0,-53.16972 z m -9.52933,0 5.16339,0 0,53.16972 -5.16339,0 0,-53.16972 z m -9.53241,0 5.16339,0 0,53.16972 -5.16339,0 0,-53.16972 z m -9.53242,0 5.16339,0 0,53.16972 -5.16339,0 0,-53.16972 z m -9.3292,0 4.96018,0 0,53.16972 -4.96018,0 0,-53.16972 z m -5.2419,-5.31681 62.90438,0 0,63.80022 -62.90438,0 0,-63.80022 z"
     id="path21"
     inkscape:connector-curvature="0"
     style="clip-rule:evenodd;fill:#ffffff;fill-rule:evenodd;fill-opacity:1" /><path
     d="m 1004.4726,413.77648 4.9663,0 0,53.17128 -4.9663,0 0,-53.17128 z m -9.52934,0 5.16334,0 0,53.17128 -5.16334,0 0,-53.17128 z m -9.53241,0 5.16339,0 0,53.17128 -5.16339,0 0,-53.17128 z m -9.53242,0 5.16339,0 0,53.17128 -5.16339,0 0,-53.17128 z m -9.52779,0 5.16339,0 0,53.17128 -5.16339,0 0,-53.17128 z m -9.33382,0 4.96326,0 0,53.17128 -4.96326,0 0,-53.17128 z m -5.24191,-5.31837 62.90439,0 0,63.80178 -62.90439,0 0,-63.80178 z"
     id="path23"
     inkscape:connector-curvature="0"
     style="clip-rule:evenodd;fill:#ffffff;fill-rule:evenodd;fill-opacity:1" /><path
     d="m 1004.4726,340.15928 4.9663,0 0,53.16972 -4.9663,0 0,-53.16972 z m -9.52934,0 5.16334,0 0,53.16972 -5.16334,0 0,-53.16972 z m -9.53241,0 5.16339,0 0,53.16972 -5.16339,0 0,-53.16972 z m -9.53242,0 5.16339,0 0,53.16972 -5.16339,0 0,-53.16972 z m -9.52779,0 5.16339,0 0,53.16972 -5.16339,0 0,-53.16972 z m -9.33382,0 4.96326,0 0,53.16972 -4.96326,0 0,-53.16972 z m -5.24191,-5.31681 62.90439,0 0,63.80022 -62.90439,0 0,-63.80022 z"
     id="path25"
     inkscape:connector-curvature="0"
     style="clip-rule:evenodd;fill:#ffffff;fill-rule:evenodd;fill-opacity:1" /><path
     d="m 1004.4726,266.54052 4.9663,0 0,53.17284 -4.9663,0 0,-53.17284 z m -9.52934,0 5.16334,0 0,53.17284 -5.16334,0 0,-53.17284 z m -9.53241,0 5.16339,0 0,53.17284 -5.16339,0 0,-53.17284 z m -9.53242,0 5.16339,0 0,53.17284 -5.16339,0 0,-53.17284 z m -9.52779,0 5.16339,0 0,53.17284 -5.16339,0 0,-53.17284 z m -9.33382,0 4.96326,0 0,53.17284 -4.96326,0 0,-53.17284 z m -5.24191,-5.31369 62.90439,0 0,63.80178 -62.90439,0 0,-63.80178 z"
     id="path27"
     inkscape:connector-curvature="0"
     style="clip-rule:evenodd;fill:#ffffff;fill-rule:evenodd;fill-opacity:1" /><path
     d="m 1077.051,413.77648 4.9633,0 0,53.17128 -4.9633,0 0,-53.17128 z m -9.5293,0 5.1603,0 0,53.17128 -5.1603,0 0,-53.17128 z m -9.5355,0 5.1634,0 0,53.17128 -5.1634,0 0,-53.17128 z m -9.5293,0 5.1633,0 0,53.17128 -5.1633,0 0,-53.17128 z m -9.5325,0 5.1634,0 0,53.17128 -5.1634,0 0,-53.17128 z m -9.3322,0 4.9678,0 0,53.17128 -4.9678,0 0,-53.17128 z m -5.2389,-5.31837 62.9029,0 0,63.80178 -62.9029,0 0,-63.80178 z"
     id="path29"
     inkscape:connector-curvature="0"
     style="clip-rule:evenodd;fill:#ffffff;fill-rule:evenodd;fill-opacity:1" /><path
     style="clip-rule:evenodd;fill:#ffffff;fill-rule:evenodd"
     inkscape:connector-curvature="0"
     id="path31"
     d="m 865.58293,575.70279 c 9.58322,0 17.3514,7.88387 17.3514,17.60092 0,9.72017 -7.76818,17.59936 -17.3514,17.59936 -9.58475,0 -17.35293,-7.87919 -17.35293,-17.59936 0,-9.71705 7.76818,-17.60092 17.35293,-17.60092" /><path
     style="clip-rule:evenodd;fill-rule:evenodd;fill:#f67f00;fill-opacity:1"
     inkscape:connector-curvature="0"
     id="path33"
     d="m 865.58293,580.69794 c 1.5872,0 3.10204,0.30292 4.49988,0.85256 -1.51484,0.88848 -2.54013,2.55301 -2.54013,4.45645 0,2.84188 2.27226,5.14193 5.0741,5.14193 1.91972,0 3.58543,-1.0821 4.44908,-2.67793 0.60809,1.48808 0.94677,3.12138 0.94677,4.83588 0,6.96105 -5.56519,12.60577 -12.42816,12.60577 -6.86297,0 -12.4297,-5.64472 -12.4297,-12.60577 -0.002,-6.96573 5.56673,-12.60889 12.42816,-12.60889" /><path
     style="fill:#ffffff"
     inkscape:connector-curvature="0"
     id="path35"
     d="m 911.71476,702.54435 c -42.97591,-20.68483 -66.56524,-48.80539 -79.69079,-79.50239 -15.96432,4.62352 -35.15385,7.57627 -57.44849,8.84418 -8.4009,0.47937 -17.23593,0.72453 -26.50817,0.72453 -10.68702,0 -21.95288,-0.32011 -33.77603,-0.95719 39.4105,39.95029 87.89464,70.70818 177.66743,71.27343 6.62743,-0.002 13.20714,-0.13272 19.75605,-0.38256 z" /><rect
     style="fill:#f67f00;fill-opacity:1"
     id="rect4235"
     width="146.37772"
     height="147.29257"
     x="794.55878"
     y="176.91507" /><g
     id="g3373"
     transform="matrix(0.00868971,0,0,-0.00868971,791.28075,326.06577)"
     style="fill:#ffffff;fill-opacity:1;stroke:none"><path
       id="path3375"
       d="m 8365,16200 c -1366,-77 -2614,-487 -3736,-1227 -435,-286 -764,-557 -1165,-957 -257,-257 -398,-414 -586,-651 C 1538,11671 1003,9481 1406,7341 1676,5906 2372,4575 3400,3526 c 369,-376 720,-672 1125,-948 1118,-763 2337,-1185 3720,-1289 206,-16 784,-16 990,0 1383,104 2602,526 3720,1289 562,383 1101,876 1543,1409 1316,1591 1913,3665 1646,5723 -258,1991 -1318,3801 -2934,5012 -1148,859 -2494,1360 -3945,1468 -198,15 -710,20 -900,10 z m 1144,-3445 c 1103,-1720 2167,-3378 2374,-3702 l 205,-322 -136,-213 C 11785,8256 10132,5679 9425,4578 l -518,-808 -1439,0 -1438,0 14,23 c 8,12 174,271 368,574 954,1493 1215,1900 1963,3068 444,693 812,1269 817,1281 8,17 -113,212 -822,1320 -750,1170 -1170,1827 -1830,2859 -120,187 -283,442 -363,568 l -146,227 1440,-2 1440,-3 598,-930 z"
       inkscape:connector-curvature="0"
       style="fill:#ffffff;fill-opacity:1" /></g></svg>