<?xml version="1.0" encoding="UTF-8"?>
<svg xmlns="http://www.w3.org/2000/svg" xmlns:xlink="http://www.w3.org/1999/xlink" width="256pt" height="256pt" viewBox="0 0 256 256" version="1.1">
<g id="surface1">
<path style=" stroke:none;fill-rule:nonzero;fill:rgb(50.196078%,0%,50.196078%);fill-opacity:1;" d="M 128.128906 -0.164062 C 93.707031 -0.164062 62.078125 12.957031 37.683594 37.359375 C 13.289062 61.765625 0.171875 93.40625 0.171875 127.84375 C 0.171875 162.28125 13.289062 193.921875 37.683594 218.324219 C 58.167969 238.816406 83.773438 251.355469 112.746094 255.085938 C 124.125 256.554688 141.566406 255.808594 154 253.332031 C 198.761719 244.410156 237.003906 209.726562 250.40625 165.894531 C 264.46875 119.910156 252.410156 71.207031 218.578125 37.359375 C 194.183594 12.957031 162.554688 -0.164062 128.128906 -0.164062 Z M 126.964844 9.875 C 145.484375 9.707031 163.988281 13.902344 180.855469 22.355469 C 203.96875 33.941406 221.996094 51.972656 233.578125 75.097656 C 250.222656 108.339844 250.222656 147.347656 233.578125 180.585938 C 227.769531 192.1875 221.980469 200.339844 212.765625 209.917969 C 193.261719 230.1875 167.4375 242.542969 138.71875 245.351562 C 117.296875 247.445312 95.191406 243.246094 75.40625 233.332031 C 63.8125 227.519531 55.660156 221.730469 46.085938 212.511719 C 9.15625 176.945312 -0.355469 121.101562 22.683594 75.097656 C 36.53125 47.445312 60.320312 26.527344 89.457031 16.382812 C 101.617188 12.148438 114.296875 9.988281 126.964844 9.875 Z M 126.964844 9.875 "/>
<path style=" stroke:none;fill-rule:nonzero;fill:rgb(50.196078%,0%,50.196078%);fill-opacity:1;" d="M 195.628906 96.019531 L 154.015625 54.40625 C 152.210938 52.597656 149.628906 51.789062 147.109375 52.246094 C 145.945312 52.457031 135.515625 54.53125 127.910156 62.136719 C 123.414062 66.632812 120.664062 72.320312 119.121094 76.402344 C 108.546875 78.261719 97.390625 78.484375 92.679688 78.484375 C 91.355469 78.484375 90.582031 78.464844 90.53125 78.464844 C 88.238281 78.394531 86.082031 79.34375 84.558594 81.023438 C 83.035156 82.703125 82.320312 84.964844 82.597656 87.214844 C 88.351562 133.84375 59.605469 179.492188 59.316406 179.949219 C 57.34375 183.03125 57.78125 187.066406 60.367188 189.660156 C 61.871094 191.167969 63.871094 191.945312 65.886719 191.945312 C 67.335938 191.945312 68.796875 191.542969 70.085938 190.722656 C 70.460938 190.480469 108.226562 166.675781 150.082031 166.675781 C 154.414062 166.675781 158.699219 166.929688 162.816406 167.4375 C 165.070312 167.722656 167.332031 167 169.011719 165.476562 C 170.691406 163.949219 171.625 161.769531 171.566406 159.5 C 171.5625 159.339844 171.222656 144.621094 173.632812 130.917969 C 177.714844 129.371094 183.398438 126.621094 187.898438 122.125 C 195.503906 114.519531 197.578125 104.089844 197.789062 102.925781 C 198.246094 100.410156 197.441406 97.828125 195.628906 96.019531 Z M 156.054688 151.222656 C 154.074219 151.125 152.082031 151.078125 150.082031 151.078125 C 128.777344 151.078125 108.8125 156.414062 93.25 162.296875 L 115.085938 140.460938 C 117.3125 141.742188 119.839844 142.4375 122.472656 142.4375 C 126.433594 142.4375 130.152344 140.898438 132.949219 138.105469 C 135.753906 135.300781 137.292969 131.574219 137.289062 127.605469 C 137.28125 123.644531 135.734375 119.914062 132.929688 117.109375 C 130.117188 114.296875 126.378906 112.75 122.410156 112.75 C 118.449219 112.75 114.726562 114.289062 111.933594 117.085938 C 109.128906 119.890625 107.589844 123.617188 107.59375 127.585938 C 107.597656 130.214844 108.292969 132.730469 109.574219 134.953125 L 87.757812 156.769531 C 94.191406 139.761719 99.964844 117.5 98.8125 93.980469 C 105.148438 93.773438 114.105469 93.183594 122.769531 91.589844 L 158.449219 127.265625 C 156.847656 135.953125 156.257812 144.894531 156.054688 151.222656 Z M 117.46875 132.566406 C 116.132812 131.230469 115.394531 129.457031 115.394531 127.570312 C 115.390625 125.691406 116.121094 123.925781 117.449219 122.601562 C 118.773438 121.273438 120.535156 120.546875 122.410156 120.546875 C 124.300781 120.546875 126.078125 121.285156 127.417969 122.625 C 128.75 123.957031 129.488281 125.734375 129.492188 127.617188 C 129.492188 129.496094 128.765625 131.261719 127.4375 132.589844 C 126.113281 133.914062 124.351562 134.640625 122.476562 134.640625 C 120.585938 134.640625 118.808594 133.902344 117.46875 132.566406 Z M 176.875 111.097656 C 174.734375 113.238281 171.707031 114.84375 169.152344 115.914062 L 134.125 80.886719 C 135.195312 78.324219 136.800781 75.304688 138.9375 73.164062 C 141.136719 70.964844 144.003906 69.550781 146.25 68.695312 L 181.339844 103.78125 C 180.480469 106.035156 179.058594 108.910156 176.875 111.097656 Z M 176.875 111.097656 "/>
</g>
</svg>
