<?xml version="1.0" encoding="UTF-8"?>
<svg xmlns="http://www.w3.org/2000/svg" xmlns:xlink="http://www.w3.org/1999/xlink" width="256pt" height="256pt" viewBox="0 0 256 256" version="1.1">
<g id="surface1">
<path style=" stroke:none;fill-rule:nonzero;fill:rgb(16.470588%,49.803922%,100%);fill-opacity:1;" d="M 127.976562 0.03125 C 93.605469 0.03125 62.03125 13.128906 37.671875 37.484375 C 13.316406 61.839844 0.21875 93.417969 0.21875 127.789062 C 0.21875 162.160156 13.316406 193.734375 37.671875 218.089844 C 58.125 238.542969 83.6875 251.058594 112.617188 254.78125 C 123.976562 256.246094 141.390625 255.503906 153.804688 253.03125 C 198.496094 244.125 236.679688 209.507812 250.0625 165.765625 C 264.101562 119.871094 252.058594 71.261719 218.28125 37.484375 C 193.921875 13.128906 162.347656 0.03125 127.976562 0.03125 Z M 126.8125 10.050781 C 145.300781 9.882812 163.777344 14.070312 180.617188 22.507812 C 203.695312 34.070312 221.695312 52.066406 233.257812 75.148438 C 249.878906 108.324219 249.878906 147.253906 233.257812 180.429688 C 227.457031 192.003906 221.679688 200.144531 212.476562 209.703125 C 193.003906 229.929688 167.222656 242.261719 138.546875 245.0625 C 117.160156 247.152344 95.089844 242.964844 75.335938 233.066406 C 63.757812 227.269531 55.621094 221.492188 46.0625 212.289062 C 9.191406 176.796875 -0.304688 121.058594 22.695312 75.148438 C 36.523438 47.550781 60.273438 26.671875 89.363281 16.546875 C 101.507812 12.320312 114.164062 10.167969 126.8125 10.050781 Z M 126.8125 10.050781 "/>
<path style=" stroke:none;fill-rule:nonzero;fill:rgb(16.470588%,49.803922%,100%);fill-opacity:1;" d="M 176.390625 125 C 180.3125 119.117188 183.339844 113.199219 185.714844 107.480469 C 185.773438 107.351562 185.824219 107.222656 185.867188 107.09375 C 195.171875 84.421875 193.894531 65.003906 193.8125 63.988281 C 193.691406 62.332031 192.375 61 190.71875 60.855469 C 190.714844 60.851562 170.832031 59.191406 147.46875 68.824219 C 147.398438 68.847656 147.335938 68.875 147.265625 68.902344 C 141.523438 71.285156 135.582031 74.324219 129.660156 78.273438 C 124.527344 81.695312 120.015625 85.597656 115.953125 89.6875 C 108.886719 86.382812 88.089844 80.074219 65.578125 105.789062 C 64.75 106.734375 64.511719 108.058594 64.960938 109.234375 C 65.40625 110.410156 66.464844 111.238281 67.714844 111.394531 C 67.882812 111.414062 84.617188 113.574219 95.144531 124.101562 L 110.457031 139.414062 L 104.988281 144.882812 C 103.660156 146.210938 103.660156 148.355469 104.988281 149.679688 C 105.648438 150.34375 106.515625 150.675781 107.386719 150.675781 C 108.253906 150.675781 109.125 150.34375 109.785156 149.679688 L 115.253906 144.210938 L 130.558594 159.519531 C 130.710938 159.671875 130.898438 159.742188 131.066406 159.859375 C 131.179688 160.027344 131.253906 160.214844 131.402344 160.363281 C 141.882812 170.84375 144.089844 187.628906 144.113281 187.796875 C 144.269531 189.042969 145.097656 190.105469 146.273438 190.550781 C 146.664062 190.703125 147.074219 190.773438 147.480469 190.773438 C 148.289062 190.773438 149.085938 190.480469 149.714844 189.933594 C 176.980469 166.054688 168.242188 144.125 165.253906 138.441406 C 169.25 134.441406 173.050781 130.015625 176.390625 125 Z M 181.363281 99.921875 L 154.710938 73.273438 C 169.046875 68.175781 181.378906 67.492188 187.136719 67.519531 C 187.140625 73.011719 186.472656 85.460938 181.363281 99.921875 Z M 111.109375 94.910156 C 104.871094 102.148438 100.078125 109.660156 96.542969 116.273438 C 89.1875 110.394531 80.53125 107.367188 74.800781 105.90625 C 90.996094 90.152344 104.835938 92.507812 111.109375 94.910156 Z M 141.09375 113.574219 C 139.765625 112.25 137.621094 112.25 136.292969 113.574219 L 115.261719 134.609375 L 101.6875 121.035156 C 107.675781 109.445312 117.8125 94.328125 133.425781 83.917969 C 138.277344 80.683594 143.128906 78.117188 147.859375 76.023438 L 178.625 106.785156 C 176.539062 111.535156 173.96875 116.398438 170.742188 121.242188 C 160.335938 136.863281 145.214844 147 133.632812 152.984375 L 120.058594 139.410156 L 141.09375 118.378906 C 142.417969 117.046875 142.417969 114.898438 141.09375 113.574219 Z M 149.597656 180.707031 C 148.074219 174.746094 144.851562 165.613281 138.484375 158.074219 C 145.1875 154.484375 152.804688 149.617188 160.121094 143.257812 C 162.601562 148.828125 166.414062 163.410156 149.597656 180.707031 Z M 149.597656 180.707031 "/>
<path style=" stroke:none;fill-rule:nonzero;fill:rgb(16.470588%,49.803922%,100%);fill-opacity:1;" d="M 88.542969 146.5 C 83.304688 146.5 78.375 148.542969 74.671875 152.25 C 70.941406 155.972656 65.945312 163.933594 62.789062 171.179688 C 58.238281 181.625 57.914062 188.90625 61.839844 192.828125 C 63.632812 194.621094 66.183594 195.535156 69.414062 195.535156 C 80.082031 195.535156 97.089844 185.335938 102.421875 180 C 106.128906 176.292969 108.171875 171.363281 108.167969 166.121094 C 108.167969 160.878906 106.128906 155.953125 102.421875 152.25 C 98.714844 148.542969 93.785156 146.5 88.542969 146.5 Z M 97.621094 175.203125 C 93.101562 179.722656 77.734375 188.75 69.414062 188.75 C 68.085938 188.75 67.101562 188.492188 66.636719 188.027344 C 65.363281 186.757812 65.566406 181.792969 69.011719 173.890625 C 72.21875 166.535156 76.789062 159.722656 79.472656 157.046875 C 81.898438 154.621094 85.121094 153.289062 88.546875 153.289062 C 91.976562 153.289062 95.199219 154.625 97.628906 157.046875 C 100.050781 159.46875 101.386719 162.695312 101.386719 166.121094 C 101.382812 169.554688 100.046875 172.777344 97.621094 175.203125 Z M 97.621094 175.203125 "/>
</g>
</svg>
