<?xml version="1.0" encoding="UTF-8" standalone="no"?>
<!-- Created with Inkscape (http://www.inkscape.org/) -->

<svg
   xmlns:dc="http://purl.org/dc/elements/1.1/"
   xmlns:cc="http://creativecommons.org/ns#"
   xmlns:rdf="http://www.w3.org/1999/02/22-rdf-syntax-ns#"
   xmlns:svg="http://www.w3.org/2000/svg"
   xmlns="http://www.w3.org/2000/svg"
   xmlns:sodipodi="http://sodipodi.sourceforge.net/DTD/sodipodi-0.dtd"
   xmlns:inkscape="http://www.inkscape.org/namespaces/inkscape"
   width="248.92651mm"
   height="191.86006mm"
   viewBox="0 0 882.02308 679.81911"
   id="svg2"
   version="1.1"
   inkscape:version="0.91 r13725"
   sodipodi:docname="boat-1626516.svg"
   inkscape:export-filename="D:\0. Vexagrafi\paid vector\222-1045 perahu mancing biasa.png"
   inkscape:export-xdpi="91"
   inkscape:export-ydpi="91">
  <defs
     id="defs4" />
  <sodipodi:namedview
     id="base"
     pagecolor="#ffffff"
     bordercolor="#666666"
     borderopacity="1.0"
     inkscape:pageopacity="0.0"
     inkscape:pageshadow="2"
     inkscape:zoom="1.1414309"
     inkscape:cx="713.40846"
     inkscape:cy="303.20132"
     inkscape:document-units="px"
     inkscape:current-layer="layer1"
     showgrid="false"
     inkscape:window-width="1920"
     inkscape:window-height="1017"
     inkscape:window-x="1912"
     inkscape:window-y="-8"
     inkscape:window-maximized="1"
     fit-margin-top="0"
     fit-margin-left="0"
     fit-margin-right="0"
     fit-margin-bottom="0" />
  <metadata
     id="metadata7">
    <rdf:RDF>
      <cc:Work
         rdf:about="">
        <dc:format>image/svg+xml</dc:format>
        <dc:type
           rdf:resource="http://purl.org/dc/dcmitype/StillImage" />
        <dc:title />
      </cc:Work>
    </rdf:RDF>
  </metadata>
  <g
     inkscape:label="Layer 1"
     inkscape:groupmode="layer"
     id="layer1"
     transform="translate(54.25153,46.13685)">
    <path
       style="opacity:1;fill:#e0f7fa;fill-opacity:1;fill-rule:evenodd;stroke:none;stroke-width:1;stroke-miterlimit:4;stroke-dasharray:1, 1;stroke-dashoffset:0;stroke-opacity:0.99479167"
       d="m -54.25153,-46.13685 0,679.81911 882.0231,0 0,-679.81911 -882.0231,0 z"
       id="rect4147"
       inkscape:connector-curvature="0" />
    <path
       style="opacity:1;fill:#ffffff;fill-opacity:1;fill-rule:evenodd;stroke:none;stroke-width:1;stroke-miterlimit:4;stroke-dasharray:1, 1;stroke-dashoffset:0;stroke-opacity:0.99479167"
       d="m 776.80464,157.12706 a 103.4572,92.995242 0 0 0 -103.45507,92.9958 103.4572,92.995242 0 0 0 103.45507,92.9958 103.4572,92.995242 0 0 0 50.96693,-12.20076 l 0,-161.65487 a 103.4572,92.995242 0 0 0 -50.96693,-12.13597 z"
       id="path4294-5"
       inkscape:connector-curvature="0" />
    <path
       style="opacity:1;fill:#ffffff;fill-opacity:1;fill-rule:evenodd;stroke:none;stroke-width:1;stroke-miterlimit:4;stroke-dasharray:1, 1;stroke-dashoffset:0;stroke-opacity:0.99479167"
       d="m 740.7699,248.96187 a 103.4572,92.995242 0 0 0 -103.45767,92.99321 103.4572,92.995242 0 0 0 103.45767,92.9958 103.4572,92.995242 0 0 0 87.00167,-42.85037 l 0,-100.45672 A 103.4572,92.995242 0 0 0 740.7699,248.96187 Z"
       id="path4294-64"
       inkscape:connector-curvature="0" />
    <ellipse
       style="opacity:1;fill:#ffffff;fill-opacity:1;fill-rule:evenodd;stroke:none;stroke-width:1;stroke-miterlimit:4;stroke-dasharray:1, 1;stroke-dashoffset:0;stroke-opacity:0.99479167"
       id="path4294-6"
       cx="594.30231"
       cy="341.95639"
       rx="103.4572"
       ry="92.995239" />
    <ellipse
       style="opacity:1;fill:#ffffff;fill-opacity:1;fill-rule:evenodd;stroke:none;stroke-width:1;stroke-miterlimit:4;stroke-dasharray:1, 1;stroke-dashoffset:0;stroke-opacity:0.99479167"
       id="path4294-7"
       cx="480.38318"
       cy="304.7583"
       rx="103.4572"
       ry="92.995239" />
    <ellipse
       style="opacity:1;fill:#ffffff;fill-opacity:1;fill-rule:evenodd;stroke:none;stroke-width:1;stroke-miterlimit:4;stroke-dasharray:1, 1;stroke-dashoffset:0;stroke-opacity:0.99479167"
       id="path4294-3"
       cx="349.0274"
       cy="282.67194"
       rx="103.4572"
       ry="92.995239" />
    <ellipse
       style="opacity:1;fill:#ffffff;fill-opacity:1;fill-rule:evenodd;stroke:none;stroke-width:1;stroke-miterlimit:4;stroke-dasharray:1, 1;stroke-dashoffset:0;stroke-opacity:0.99479167"
       id="path4294-2"
       cx="259.51947"
       cy="295.45877"
       rx="103.4572"
       ry="92.995239" />
    <ellipse
       style="opacity:1;fill:#ffffff;fill-opacity:1;fill-rule:evenodd;stroke:none;stroke-width:1;stroke-miterlimit:4;stroke-dasharray:1, 1;stroke-dashoffset:0;stroke-opacity:0.99479167"
       id="path4294-8"
       cx="401.33722"
       cy="369.85495"
       rx="103.4572"
       ry="92.995239" />
    <ellipse
       style="opacity:1;fill:#ffffff;fill-opacity:1;fill-rule:evenodd;stroke:none;stroke-width:1;stroke-miterlimit:4;stroke-dasharray:1, 1;stroke-dashoffset:0;stroke-opacity:0.99479167"
       id="path4294-23"
       cx="88.640724"
       cy="471.56848"
       rx="103.4572"
       ry="92.995239" />
    <ellipse
       style="opacity:1;fill:#ffffff;fill-opacity:1;fill-rule:evenodd;stroke:none;stroke-width:1;stroke-miterlimit:4;stroke-dasharray:1, 1;stroke-dashoffset:0;stroke-opacity:0.99479167"
       id="path4294"
       cx="155.48106"
       cy="360.55542"
       rx="103.4572"
       ry="92.995239" />
    <path
       style="opacity:1;fill:#4dd0e1;fill-opacity:0.62011168;fill-rule:evenodd;stroke:none;stroke-width:1;stroke-miterlimit:4;stroke-dasharray:1, 1;stroke-dashoffset:0;stroke-opacity:0.99479167"
       d="M 149.11604,407.79718 C 95.260232,406.85843 -6.3767209,438.39133 -54.25153,427.6895 l 0,205.99276 882.0231,0 0,-213.902 c 0,42.88417 -1.0596,-2.09554 -2.32717,-2.32716 -45.3278,-8.28242 -80.91999,12.42328 -126.46495,11.37667 -37.70839,-0.86653 -122.66968,-10.16859 -160.47574,-7.85482 -73.93421,4.52482 -99.99731,18.2625 -177.33082,19.26257 -80.55623,1.04175 -132.20485,-29.50667 -212.05685,-32.44034 z"
       id="rect4149"
       inkscape:connector-curvature="0" />
    <path
       style="opacity:1;fill:#4dd0e1;fill-opacity:0.62011168;fill-rule:evenodd;stroke:none;stroke-width:1;stroke-miterlimit:4;stroke-dasharray:1, 1;stroke-dashoffset:0;stroke-opacity:0.99479167"
       d="m -32.695475,399.8128 c -11.908111,-0.17682 -21.556055,0.64328 -21.556055,1.44863 l 0,232.42083 882.0231,0 0,-213.902 c 0,42.88417 -1.0596,-2.09554 -2.32717,-2.32716 -45.3278,-8.28242 -78.01491,-7.91995 -123.55988,-8.96657 -37.70839,-0.86652 -123.83066,23.54158 -161.63674,25.85534 -73.9342,4.52483 -114.36972,-14.48362 -191.70324,-13.48355 -80.55622,1.04174 -133.74939,7.5258 -213.60139,4.59213 -55.346768,-2.03336 -119.090108,-20.2144 -145.359542,-24.02575 -7.175316,-1.04104 -15.134217,-1.50582 -22.279083,-1.6119 z"
       id="path4152"
       inkscape:connector-curvature="0" />
    <path
       style="opacity:1;fill:#48c9da;fill-opacity:0.62011168;fill-rule:evenodd;stroke:none;stroke-width:1;stroke-miterlimit:4;stroke-dasharray:1, 1;stroke-dashoffset:0;stroke-opacity:0.99479167"
       d="M 133.27423,460.13503 C 78.931222,460.83658 -7.8728079,483.99647 -54.25153,474.8262 l 0,158.85606 882.0231,0 0,-165.85308 c 0,37.93221 -1.0596,-1.85278 -2.32717,-2.05766 -45.3278,-7.32602 -80.91999,10.98593 -126.46495,10.06018 -37.70839,-0.76645 -122.66968,-8.99178 -160.47574,-6.9452 -73.93421,4.00234 -99.99731,16.15449 -177.33082,17.03909 -80.55623,0.92145 -142.88958,-23.19305 -222.74158,-25.78798 -1.683,-0.026 -3.40408,-0.0252 -5.15708,-0.003 z"
       id="path4179"
       inkscape:connector-curvature="0" />
    <path
       style="opacity:1;fill:#74e1ef;fill-opacity:0.25139663;fill-rule:evenodd;stroke:none;stroke-width:1;stroke-miterlimit:4;stroke-dasharray:1, 1;stroke-dashoffset:0;stroke-opacity:0.99479167"
       d="m -32.695475,478.85339 c -11.908111,-0.14476 -21.556055,0.52753 -21.556055,1.18691 l 0,153.64196 882.0231,0 0,-138.48172 c 0,35.11109 -1.0596,-1.71252 -2.32717,-1.90215 -45.3278,-6.78116 -78.01491,-6.48481 -123.55988,-7.34172 -37.70839,-0.70946 -123.83066,19.27555 -161.63674,21.16993 -73.9342,3.70467 -114.36972,-11.85856 -191.70324,-11.03977 -80.55622,0.85293 -133.74939,6.15959 -213.60139,3.75767 -55.346768,-1.66481 -119.090108,-16.54893 -145.359542,-19.66945 -7.175316,-0.85234 -15.134217,-1.2348 -22.279083,-1.32166 z"
       id="path4181"
       inkscape:connector-curvature="0" />
    <path
       style="opacity:1;fill:#48c9da;fill-opacity:0.62011168;fill-rule:evenodd;stroke:none;stroke-width:1;stroke-miterlimit:4;stroke-dasharray:1, 1;stroke-dashoffset:0;stroke-opacity:0.99479167"
       d="m 60.546522,513.60793 c -53.8558189,-0.70191 -66.9232429,25.0669 -114.798052,17.065 l 0,103.00933 882.0231,0 0,-108.92572 c 0,32.06505 -1.07317,-1.48556 -2.32717,-1.7389 -124.23688,-25.09815 -129.67076,21.11359 -217.13617,23.6189 -37.69849,1.07983 -98.2578,-26.20151 -136.06386,-24.47149 -73.93422,3.38329 -116.26931,24.11762 -193.60282,24.86539 -80.55623,0.77893 -138.24303,-31.22895 -218.095028,-33.42251 z"
       id="path4183"
       inkscape:connector-curvature="0" />
    <path
       style="opacity:1;fill:#74e1ef;fill-opacity:0.25139663;fill-rule:evenodd;stroke:none;stroke-width:1;stroke-miterlimit:4;stroke-dasharray:1, 1;stroke-dashoffset:0;stroke-opacity:0.99479167"
       d="m 37.552182,542.94625 c -8.368817,-0.17351 -91.803712,11.66993 -91.803712,12.39771 l 0,78.3383 882.0231,0 0,-66.38632 c 0,27.68092 -1.0596,-1.35097 -2.32717,-1.50048 -45.3278,-5.34614 -78.01491,-5.11382 -123.55988,-5.7894 -37.70839,-0.55932 -123.83066,15.19834 -161.63674,16.69182 -73.93421,2.92069 -87.63327,-17.48765 -164.96678,-16.84212 -80.55623,0.67243 -170.94771,32.75834 -250.79971,30.8647 -21.93871,-0.94896 -198.813044,-37.95241 -88.401078,-46.89569 2.33051,-0.58265 2.66751,-0.85373 1.47197,-0.87852 z"
       id="path4185"
       inkscape:connector-curvature="0" />
    <path
       style="fill:#ffffff;fill-rule:evenodd;stroke:none;stroke-width:0.91097486px;stroke-linecap:butt;stroke-linejoin:miter;stroke-opacity:1"
       d="m 475.40556,325.99472 c 2.61853,-0.81601 5.6701,-1.95103 5.6701,-1.95103 -1.33359,1.62575 -2.72624,3.178 -4.65015,4.06909 l -1.06112,-1.51389 z"
       id="path4557-2-5"
       inkscape:connector-curvature="0"
       sodipodi:nodetypes="ccccc" />
    <path
       style="fill:#4fc3f7;fill-opacity:0.61452511;fill-rule:evenodd;stroke:none;stroke-width:1px;stroke-linecap:butt;stroke-linejoin:miter;stroke-opacity:1"
       d="m 598.34066,430.24409 72.74432,-36.57764 -13.5625,14.38447 59.59278,-28.35795 -8.63068,13.1515 57.53787,-25.07007 -8.2197,16.85038 58.77083,-19.72727 -3.28788,11.50757 13.97348,-7.39772 -0.41097,72.7443 -50.55114,-2.87689 2.46591,4.52083 -50.55112,-2.87689 c 0,0 8.63067,2.87689 6.16477,2.87689 -2.46591,0 -47.67423,-4.10984 -47.67423,-4.10984 l 5.34279,5.3428 -65.75756,-8.21969 -3.69886,7.80871 z"
       id="path4227"
       inkscape:connector-curvature="0" />
    <path
       style="fill:#81d4fa;fill-rule:evenodd;stroke:none;stroke-width:1px;stroke-linecap:butt;stroke-linejoin:miter;stroke-opacity:1"
       d="m 639.02816,390.78956 c 5.99242,-6.53599 11.62041,-13.50929 18.9053,-18.49432 6.24563,-4.15703 8.4479,-1.84467 10.6856,0.41098 -4.04101,3.05168 -8.20216,3.0822 -12.10859,5.3692 -5.96784,3.49385 -11.61531,8.96485 -17.48231,12.71414 z"
       id="path4229"
       inkscape:connector-curvature="0"
       sodipodi:nodetypes="cccsc" />
    <path
       style="fill:#81d4fa;fill-rule:evenodd;stroke:none;stroke-width:1px;stroke-linecap:butt;stroke-linejoin:miter;stroke-opacity:1"
       d="m 687.93534,346.81419 8.2197,-11.50758 c 6.05083,-5.02155 6.46365,-2.05593 7.80871,-0.41099 z"
       id="path4231"
       inkscape:connector-curvature="0"
       sodipodi:nodetypes="cccc" />
    <path
       style="fill:#81d4fa;fill-rule:evenodd;stroke:none;stroke-width:1px;stroke-linecap:butt;stroke-linejoin:miter;stroke-opacity:1"
       d="m 746.70617,343.93729 29.17992,-12.32955 c 25.31974,-8.90141 40.40498,0.49319 24.2481,2.87689 -24.6487,0.25521 -53.42802,9.45266 -53.42802,9.45266 z"
       id="path4233"
       inkscape:connector-curvature="0"
       sodipodi:nodetypes="cccc" />
    <path
       sodipodi:nodetypes="cccsc"
       inkscape:connector-curvature="0"
       id="path4235"
       d="m 632.42285,406.54037 c 3.2012,-4.3252 6.13249,-8.87597 10.29092,-12.40116 3.5757,-2.95392 5.17698,-1.78413 6.79554,-0.65048 -2.28091,2.12312 -4.91004,2.48796 -7.17474,4.15227 -3.45976,2.54259 -6.53875,6.21569 -9.91172,8.89937 z"
       style="fill:#81d4fa;fill-rule:evenodd;stroke:none;stroke-width:1px;stroke-linecap:butt;stroke-linejoin:miter;stroke-opacity:1" />
    <path
       style="fill:#81d4fa;fill-rule:evenodd;stroke:none;stroke-width:1px;stroke-linecap:butt;stroke-linejoin:miter;stroke-opacity:1"
       d="m 617.01091,414.86281 c 3.20121,-4.3252 6.1325,-8.87597 10.29093,-12.40116 3.5757,-2.95392 5.17697,-1.78413 6.79554,-0.65048 -2.28091,2.12312 -4.91004,2.48796 -7.17474,4.15227 -3.45977,2.54258 -6.53875,6.21569 -9.91173,8.89937 z"
       id="path4237"
       inkscape:connector-curvature="0"
       sodipodi:nodetypes="cccsc" />
    <path
       sodipodi:nodetypes="cccsc"
       inkscape:connector-curvature="0"
       id="path4239"
       d="m 618.02988,416.71397 c 1.35562,-5.20742 2.37666,-10.52338 4.91893,-15.34587 2.21485,-4.07501 4.13703,-3.58738 6.06174,-3.13973 -1.3237,2.821 -3.6267,4.14073 -5.10659,6.53002 -2.26082,3.65011 -3.74643,8.20695 -5.87408,11.95558 z"
       style="fill:#81d4fa;fill-rule:evenodd;stroke:none;stroke-width:1px;stroke-linecap:butt;stroke-linejoin:miter;stroke-opacity:1" />
    <path
       style="fill:#81d4fa;fill-rule:evenodd;stroke:none;stroke-width:1px;stroke-linecap:butt;stroke-linejoin:miter;stroke-opacity:1"
       d="m 615.08668,423.97891 c 0.23527,-2.39589 0.36526,-4.82737 0.97391,-7.097 0.53453,-1.9205 1.13474,-1.77716 1.73436,-1.65188 -0.30641,1.32119 -0.96104,2.00585 -1.32949,3.13906 -0.5629,1.73119 -0.85966,3.83959 -1.37878,5.60982 z"
       id="path4241"
       inkscape:connector-curvature="0"
       sodipodi:nodetypes="cccsc" />
    <path
       sodipodi:nodetypes="cccsc"
       inkscape:connector-curvature="0"
       id="path4243"
       d="m 613.92852,422.97976 c 1.81522,-2.61182 3.47738,-5.35986 5.83539,-7.48857 2.02756,-1.78377 2.93556,-1.07737 3.85334,-0.3928 -1.29337,1.28206 -2.7842,1.50237 -4.06837,2.50739 -1.96184,1.53536 -3.70775,3.75341 -5.62036,5.37398 z"
       style="fill:#81d4fa;fill-rule:evenodd;stroke:none;stroke-width:1px;stroke-linecap:butt;stroke-linejoin:miter;stroke-opacity:1" />
    <path
       sodipodi:nodetypes="cccsc"
       inkscape:connector-curvature="0"
       id="path4245"
       d="m 688.14084,385.24126 c 8.15636,-7.50478 15.81666,-15.51171 25.73221,-21.23564 8.501,-4.77321 11.49855,-2.1181 14.54429,0.47189 -5.50026,3.50401 -11.16405,3.53906 -16.48114,6.16506 -8.12287,4.01173 -15.80972,10.29366 -23.79536,14.59869 z"
       style="fill:#81d4fa;fill-rule:evenodd;stroke:none;stroke-width:1px;stroke-linecap:butt;stroke-linejoin:miter;stroke-opacity:1" />
    <path
       sodipodi:nodetypes="cccc"
       inkscape:connector-curvature="0"
       id="path4247"
       d="m 723.68039,338.96771 9.58965,-13.49224 c 7.0593,-5.8876 7.54092,-2.41052 9.11016,-0.48187 -5.5827,5.05032 -11.52993,9.88083 -18.69981,13.97411 z"
       style="fill:#81d4fa;fill-rule:evenodd;stroke:none;stroke-width:1px;stroke-linecap:butt;stroke-linejoin:miter;stroke-opacity:1" />
    <path
       sodipodi:nodetypes="cccc"
       inkscape:connector-curvature="0"
       id="path4249"
       d="m 677.42679,373.6136 13.39589,-15.00688 c 11.9888,-12.0044 22.11725,-10.83677 13.79741,-5.04251 -13.37946,6.92564 -27.19328,20.04941 -27.19328,20.04941 z"
       style="fill:#81d4fa;fill-rule:evenodd;stroke:none;stroke-width:1px;stroke-linecap:butt;stroke-linejoin:miter;stroke-opacity:1" />
    <ellipse
       style="opacity:1;fill:#ffffff;fill-opacity:1;fill-rule:evenodd;stroke:none;stroke-width:1;stroke-miterlimit:4;stroke-dasharray:1, 1;stroke-dashoffset:0;stroke-opacity:0.99479167"
       id="path4294-76"
       cx="641.96246"
       cy="243.14896"
       rx="103.4572"
       ry="92.995239" />
    <ellipse
       style="opacity:1;fill:#ffffff;fill-opacity:1;fill-rule:evenodd;stroke:none;stroke-width:1;stroke-miterlimit:4;stroke-dasharray:1, 1;stroke-dashoffset:0;stroke-opacity:0.99479167"
       id="path4294-32"
       cx="580.35303"
       cy="129.22978"
       rx="103.4572"
       ry="92.995239" />
    <ellipse
       style="opacity:1;fill:#ffffff;fill-opacity:1;fill-rule:evenodd;stroke:none;stroke-width:1;stroke-miterlimit:4;stroke-dasharray:1, 1;stroke-dashoffset:0;stroke-opacity:0.99479167"
       id="path4294-9"
       cx="628.01312"
       cy="50.183823"
       rx="103.4572"
       ry="92.995239" />
    <ellipse
       style="opacity:1;fill:#ffffff;fill-opacity:1;fill-rule:evenodd;stroke:none;stroke-width:1;stroke-miterlimit:4;stroke-dasharray:1, 1;stroke-dashoffset:0;stroke-opacity:0.99479167"
       id="path4294-30"
       cx="687.29755"
       cy="82.732155"
       rx="103.4572"
       ry="92.995239" />
    <path
       style="opacity:1;fill:#ffffff;fill-opacity:1;fill-rule:evenodd;stroke:none;stroke-width:1;stroke-miterlimit:4;stroke-dasharray:1, 1;stroke-dashoffset:0;stroke-opacity:0.99479167"
       d="m 744.25805,75.756712 a 103.4572,92.995242 0 0 0 -103.45766,92.995798 103.4572,92.995242 0 0 0 103.45766,92.9958 103.4572,92.995242 0 0 0 83.51352,-38.2712 l 0,-109.4207 A 103.4572,92.995242 0 0 0 744.25805,75.756712 Z"
       id="path4294-0"
       inkscape:connector-curvature="0" />
  </g>
</svg>
