<?xml version="1.0" encoding="UTF-8" standalone="no"?>
<!-- Created with Inkscape (http://www.inkscape.org/) -->

<svg
   xmlns:dc="http://purl.org/dc/elements/1.1/"
   xmlns:cc="http://creativecommons.org/ns#"
   xmlns:rdf="http://www.w3.org/1999/02/22-rdf-syntax-ns#"
   xmlns:svg="http://www.w3.org/2000/svg"
   xmlns="http://www.w3.org/2000/svg"
   xmlns:sodipodi="http://sodipodi.sourceforge.net/DTD/sodipodi-0.dtd"
   xmlns:inkscape="http://www.inkscape.org/namespaces/inkscape"
   width="250mm"
   height="250mm"
   viewBox="0 0 885.82677 885.82677"
   id="svg2"
   version="1.1"
   inkscape:version="0.91 r13725"
   sodipodi:docname="icon.svg"
   inkscape:export-filename="D:\Programming\Repositories\jrbeverly.icons\src\jrbeverly.icons\icon.png"
   inkscape:export-xdpi="203.743"
   inkscape:export-ydpi="203.743">
  <defs
     id="defs4" />
  <sodipodi:namedview
     id="base"
     pagecolor="#f9f9f9"
     bordercolor="#666666"
     borderopacity="1.0"
     inkscape:pageopacity="1"
     inkscape:pageshadow="2"
     inkscape:zoom="0.49497475"
     inkscape:cx="469.22582"
     inkscape:cy="320.05543"
     inkscape:document-units="px"
     inkscape:current-layer="layer1"
     showgrid="false"
     inkscape:window-width="1920"
     inkscape:window-height="1017"
     inkscape:window-x="-8"
     inkscape:window-y="-8"
     inkscape:window-maximized="1" />
  <metadata
     id="metadata7">
    <rdf:RDF>
      <cc:Work
         rdf:about="">
        <dc:format>image/svg+xml</dc:format>
        <dc:type
           rdf:resource="http://purl.org/dc/dcmitype/StillImage" />
        <dc:title />
      </cc:Work>
    </rdf:RDF>
  </metadata>
  <g
     inkscape:groupmode="layer"
     id="layer2"
     inkscape:label="Layer 2">
    <g
       id="g4196"
       transform="matrix(0.87804193,0,0,0.87804193,-623.01942,-13.412825)">
      <path
         id="path4182"
         d="m 820.67027,138.50461 0,28.39813 0,567.96242 0,28.39812 28.39812,0 738.35111,0 28.3982,0 0,-28.39812 0,-567.96242 0,-28.39813 -28.3982,0 -738.35111,0 -28.39812,0 z"
         style="color:#000000;line-height:normal;font-family:'Bitstream Vera Sans';-inkscape-font-specification:'Bitstream Vera Sans';text-indent:0;text-align:start;text-transform:none;block-progression:tb;overflow:visible;fill:#e2e8e7;fill-opacity:1"
         inkscape:connector-curvature="0" />
      <path
         id="path4180"
         d="m 877.46652,195.30086 681.55488,0 0,394.91137 -149.9776,-150.86501 -20.4111,-20.41116 -20.4112,20.41116 -108.2678,108.26783 -163.2892,-165.06408 -20.4112,-20.41115 -20.4111,20.41115 -178.37568,178.3757 0,-365.62581 z"
         style="color:#000000;line-height:normal;font-family:'Bitstream Vera Sans';-inkscape-font-specification:'Bitstream Vera Sans';text-indent:0;text-align:start;text-transform:none;block-progression:tb;overflow:visible;fill:#00abcd;fill-opacity:1"
         inkscape:connector-curvature="0" />
      <path
         id="path4178"
         d="m 1445.4289,252.0971 c -31.3677,0 -56.7962,25.42853 -56.7962,56.79624 0,31.36771 25.4285,56.79624 56.7962,56.79624 31.3677,0 56.7962,-25.42853 56.7962,-56.79624 0,-31.36771 -25.4285,-56.79624 -56.7962,-56.79624 z"
         style="color:#000000;line-height:normal;font-family:'Bitstream Vera Sans';-inkscape-font-specification:'Bitstream Vera Sans';text-indent:0;text-align:start;text-transform:none;block-progression:tb;overflow:visible;fill:#f6c574;fill-opacity:1"
         inkscape:connector-curvature="0" />
      <path
         id="path4176"
         d="m 1076.2533,442.89698 260.9078,263.57006 -459.69458,0 0,-64.78321 198.78678,-198.78685 z"
         style="color:#000000;line-height:normal;font-family:'Bitstream Vera Sans';-inkscape-font-specification:'Bitstream Vera Sans';text-indent:0;text-align:start;text-transform:none;block-progression:tb;overflow:visible;fill:#f6c574;fill-opacity:1"
         inkscape:connector-curvature="0" />
      <path
         id="path4153-5"
         d="m 1388.6327,499.69322 170.3887,170.38873 0,36.38509 -141.1032,0 -118.0297,-118.91714 88.7442,-87.85668 z"
         style="color:#000000;line-height:normal;font-family:'Bitstream Vera Sans';-inkscape-font-specification:'Bitstream Vera Sans';text-indent:0;text-align:start;text-transform:none;block-progression:tb;overflow:visible;fill:#f6c574;fill-opacity:1"
         inkscape:connector-curvature="0" />
    </g>
  </g>
  <g
     inkscape:label="Layer 1"
     inkscape:groupmode="layer"
     id="layer1"
     transform="translate(0,-166.53538)">
    <g
       id="g4203"
       transform="matrix(0.4914429,0,0,0.4914429,224.286,626.45608)">
      <path
         inkscape:connector-curvature="0"
         id="path4183"
         d="m 131,679.27478 0,-40.08737 40.08741,0 40.08734,0 0,40.08737 0,40.08737 -40.08734,0 -40.08741,0 0,-40.08737 z"
         style="fill:#fc5652;fill-opacity:1" />
      <path
         inkscape:connector-curvature="0"
         id="path4181"
         d="m 237.89966,679.27478 0,-40.08737 40.08737,0 40.08737,0 0,40.08737 0,40.08737 -40.08737,0 -40.08737,0 0,-40.08737 z"
         style="fill:#e2e8e7;fill-opacity:1" />
      <path
         inkscape:connector-curvature="0"
         id="path4179"
         d="m 344.79931,679.27478 0,-40.08737 40.08737,0 40.08736,0 0,40.08737 0,40.08737 -40.08736,0 -40.08737,0 0,-40.08737 z"
         style="fill:#fc5652;fill-opacity:1" />
      <path
         inkscape:connector-curvature="0"
         id="path4177"
         d="m 451.69896,679.27478 0,-40.08737 40.08736,0 40.08737,0 0,40.08737 0,40.08737 -40.08737,0 -40.08736,0 0,-40.08737 z"
         style="fill:#e2e8e7;fill-opacity:1" />
      <path
         inkscape:connector-curvature="0"
         id="path4175"
         d="m 558.5986,679.27478 0,-40.08737 40.08737,0 40.08737,0 0,40.08737 0,40.08737 -40.08737,0 -40.08737,0 0,-40.08737 z"
         style="fill:#f6c574;fill-opacity:1" />
      <path
         inkscape:connector-curvature="0"
         id="path4173"
         d="m 665.49825,679.27478 0,-40.08737 40.08736,0 40.08737,0 0,40.08737 0,40.08737 -40.08737,0 -40.08736,0 0,-40.08737 z"
         style="fill:#f6c574;fill-opacity:1" />
      <path
         inkscape:connector-curvature="0"
         id="path4171"
         d="m 131,572.37513 0,-40.08736 40.08741,0 40.08734,0 0,40.08736 0,40.08737 -40.08734,0 -40.08741,0 0,-40.08737 z"
         style="fill:#e2e8e7;fill-opacity:1" />
      <path
         inkscape:connector-curvature="0"
         id="path4169"
         d="m 237.89966,572.37513 0,-40.08736 40.08737,0 40.08737,0 0,40.08736 0,40.08737 -40.08737,0 -40.08737,0 0,-40.08737 z"
         style="fill:#00b39f;fill-opacity:1" />
      <path
         inkscape:connector-curvature="0"
         id="path4167"
         d="m 344.79931,572.37513 0,-40.08736 40.08737,0 40.08736,0 0,40.08736 0,40.08737 -40.08736,0 -40.08737,0 0,-40.08737 z"
         style="fill:#00abcd;fill-opacity:1" />
      <path
         inkscape:connector-curvature="0"
         id="path4165"
         d="m 451.69896,572.37513 0,-40.08736 40.08736,0 40.08737,0 0,40.08736 0,40.08737 -40.08737,0 -40.08736,0 0,-40.08737 z"
         style="fill:#00b39f;fill-opacity:1" />
      <path
         inkscape:connector-curvature="0"
         id="path4163"
         d="m 558.5986,572.37513 0,-40.08736 40.08737,0 40.08737,0 0,40.08736 0,40.08737 -40.08737,0 -40.08737,0 0,-40.08737 z"
         style="fill:#00b39f;fill-opacity:1" />
      <path
         inkscape:connector-curvature="0"
         id="path4161"
         d="m 665.49825,572.37513 0,-40.08736 40.08736,0 40.08737,0 0,40.08736 0,40.08737 -40.08737,0 -40.08736,0 0,-40.08737 z"
         style="fill:#e2e8e7;fill-opacity:1" />
      <path
         inkscape:connector-curvature="0"
         id="path4159"
         d="m 131,465.47549 0,-40.08736 40.08741,0 40.08734,0 0,40.08736 0,40.08737 -40.08734,0 -40.08741,0 0,-40.08737 z"
         style="fill:#00abcd;fill-opacity:1" />
      <path
         inkscape:connector-curvature="0"
         id="path4157"
         d="m 237.89966,465.47549 0,-40.08736 40.08737,0 40.08737,0 0,40.08736 0,40.08737 -40.08737,0 -40.08737,0 0,-40.08737 z"
         style="fill:#00b3a0;fill-opacity:1" />
      <path
         inkscape:connector-curvature="0"
         id="path4155"
         d="m 344.79931,465.47549 0,-40.08736 40.08737,0 40.08736,0 0,40.08736 0,40.08737 -40.08736,0 -40.08737,0 0,-40.08737 z"
         style="fill:#f6c574;fill-opacity:1" />
      <path
         inkscape:connector-curvature="0"
         id="path4153"
         d="m 451.69896,465.47549 0,-40.08736 40.08736,0 40.08737,0 0,40.08736 0,40.08737 -40.08737,0 -40.08736,0 0,-40.08737 z"
         style="fill:#e2e8e7;fill-opacity:1" />
      <path
         inkscape:connector-curvature="0"
         id="path4151"
         d="m 558.5986,465.47549 0,-40.08736 40.08737,0 40.08737,0 0,40.08736 0,40.08737 -40.08737,0 -40.08737,0 0,-40.08737 z"
         style="fill:#fc5652;fill-opacity:1" />
      <path
         inkscape:connector-curvature="0"
         id="path4147"
         d="m 665.49825,465.47549 0,-40.08736 40.08736,0 40.08737,0 0,40.08736 0,40.08737 -40.08737,0 -40.08736,0 0,-40.08737 z"
         style="fill:#f6c574;fill-opacity:1" />
    </g>
  </g>
</svg>
