<?xml version="1.0" encoding="UTF-8"?>
<svg xmlns="http://www.w3.org/2000/svg" xmlns:xlink="http://www.w3.org/1999/xlink" width="256pt" height="256pt" viewBox="0 0 256 256" version="1.1">
<g id="surface1">
<path style=" stroke:none;fill-rule:nonzero;fill:rgb(92.54902%,36.470588%,34.117647%);fill-opacity:1;" d="M 128.128906 -0.164062 C 93.707031 -0.164062 62.078125 12.957031 37.683594 37.359375 C 13.289062 61.765625 0.171875 93.40625 0.171875 127.84375 C 0.171875 162.28125 13.289062 193.921875 37.683594 218.324219 C 58.167969 238.816406 83.773438 251.355469 112.746094 255.085938 C 124.125 256.554688 141.566406 255.808594 154 253.332031 C 198.761719 244.410156 237.003906 209.726562 250.40625 165.894531 C 264.46875 119.910156 252.410156 71.207031 218.578125 37.359375 C 194.183594 12.957031 162.554688 -0.164062 128.128906 -0.164062 Z M 126.964844 9.875 C 145.484375 9.707031 163.988281 13.902344 180.855469 22.355469 C 203.96875 33.941406 221.996094 51.972656 233.578125 75.097656 C 250.222656 108.339844 250.222656 147.347656 233.578125 180.585938 C 227.769531 192.1875 221.980469 200.339844 212.765625 209.917969 C 193.261719 230.1875 167.4375 242.542969 138.71875 245.351562 C 117.296875 247.445312 95.191406 243.246094 75.40625 233.332031 C 63.8125 227.519531 55.660156 221.730469 46.085938 212.511719 C 9.15625 176.945312 -0.355469 121.101562 22.683594 75.097656 C 36.53125 47.445312 60.320312 26.527344 89.457031 16.382812 C 101.617188 12.148438 114.296875 9.988281 126.964844 9.875 Z M 126.964844 9.875 "/>
<path style=" stroke:none;fill-rule:nonzero;fill:rgb(92.54902%,36.470588%,34.117647%);fill-opacity:1;" d="M 83.328125 189.609375 L 145.421875 189.609375 L 145.421875 202.902344 L 83.328125 202.902344 Z M 83.328125 189.609375 "/>
<path style=" stroke:none;fill-rule:nonzero;fill:rgb(92.54902%,36.470588%,34.117647%);fill-opacity:1;" d="M 206.351562 76.480469 L 67.804688 76.480469 L 67.804688 63.191406 L 193.351562 63.191406 Z M 206.351562 76.480469 "/>
<path style=" stroke:none;fill-rule:nonzero;fill:rgb(92.54902%,36.470588%,34.117647%);fill-opacity:1;" d="M 98.851562 78.714844 L 112.144531 78.714844 L 112.144531 187.378906 L 98.851562 187.378906 Z M 98.851562 78.714844 "/>
<path style=" stroke:none;fill-rule:nonzero;fill:rgb(92.54902%,36.470588%,34.117647%);fill-opacity:1;" d="M 114.375 78.90625 L 129.996094 78.90625 L 129.996094 105.78125 L 114.375 105.78125 Z M 114.375 78.90625 "/>
<path style=" stroke:none;fill-rule:nonzero;fill:rgb(92.54902%,36.470588%,34.117647%);fill-opacity:1;" d="M 46.847656 105.492188 L 47.429688 105.492188 L 47.429688 105.585938 L 46.847656 105.585938 Z M 46.847656 105.492188 "/>
<path style=" stroke:none;fill-rule:nonzero;fill:rgb(92.54902%,36.470588%,34.117647%);fill-opacity:1;" d="M 175.9375 78.90625 L 177.308594 78.90625 L 177.308594 141.203125 L 175.9375 141.203125 Z M 175.9375 78.90625 "/>
<path style=" stroke:none;fill-rule:nonzero;fill:rgb(92.54902%,36.470588%,34.117647%);fill-opacity:1;" d="M 116.246094 84.660156 L 128.027344 84.660156 L 128.027344 93.976562 L 116.246094 93.976562 Z M 116.246094 84.660156 "/>
</g>
</svg>
