<?xml version="1.0" encoding="UTF-8"?>
<svg xmlns="http://www.w3.org/2000/svg" xmlns:xlink="http://www.w3.org/1999/xlink" width="256pt" height="256pt" viewBox="0 0 256 256" version="1.1">
<g id="surface1">
<path style=" stroke:none;fill-rule:nonzero;fill:rgb(50.196078%,50.196078%,100%);fill-opacity:1;" d="M 127.976562 0.03125 C 93.605469 0.03125 62.03125 13.128906 37.671875 37.484375 C 13.316406 61.839844 0.21875 93.417969 0.21875 127.789062 C 0.21875 162.160156 13.316406 193.734375 37.671875 218.089844 C 58.125 238.542969 83.6875 251.058594 112.617188 254.78125 C 123.976562 256.246094 141.390625 255.503906 153.804688 253.03125 C 198.496094 244.125 236.679688 209.507812 250.0625 165.765625 C 264.101562 119.871094 252.058594 71.261719 218.28125 37.484375 C 193.921875 13.128906 162.347656 0.03125 127.976562 0.03125 Z M 126.8125 10.050781 C 145.300781 9.882812 163.777344 14.070312 180.617188 22.507812 C 203.695312 34.070312 221.695312 52.066406 233.257812 75.148438 C 249.878906 108.324219 249.878906 147.253906 233.257812 180.429688 C 227.457031 192.003906 221.679688 200.144531 212.476562 209.703125 C 193.003906 229.929688 167.222656 242.261719 138.546875 245.0625 C 117.160156 247.152344 95.089844 242.964844 75.335938 233.066406 C 63.757812 227.269531 55.621094 221.492188 46.0625 212.289062 C 9.191406 176.796875 -0.304688 121.058594 22.695312 75.148438 C 36.523438 47.550781 60.273438 26.671875 89.363281 16.546875 C 101.507812 12.320312 114.164062 10.167969 126.8125 10.050781 Z M 126.8125 10.050781 "/>
<path style=" stroke:none;fill-rule:nonzero;fill:rgb(50.196078%,50.196078%,100%);fill-opacity:1;" d="M 191.007812 84.421875 L 116.921875 84.421875 C 115.722656 84.421875 114.917969 85.222656 114.917969 86.425781 C 114.917969 87.625 115.722656 88.425781 116.921875 88.425781 L 191.007812 88.425781 C 191.40625 88.425781 192.007812 88.425781 192.40625 88.628906 C 195.613281 89.226562 198.015625 92.03125 198.015625 95.433594 L 198.015625 117.859375 C 198.015625 121.664062 194.8125 124.867188 191.007812 124.867188 L 141.75 124.867188 L 141.75 120.0625 C 141.75 118.863281 140.949219 118.058594 139.75 118.058594 L 111.316406 118.058594 C 110.113281 118.058594 109.3125 118.863281 109.3125 120.0625 L 109.3125 136.882812 C 109.3125 138.082031 110.113281 138.882812 111.316406 138.882812 L 139.75 138.882812 C 140.949219 138.882812 141.75 138.082031 141.75 136.882812 L 141.75 128.871094 L 191.007812 128.871094 C 193.609375 128.871094 196.011719 127.871094 198.015625 126.269531 L 198.015625 173.523438 C 198.015625 177.328125 194.8125 180.53125 191.007812 180.53125 L 60.058594 180.53125 C 56.253906 180.53125 53.050781 177.328125 53.050781 173.523438 L 53.050781 126.269531 C 54.851562 127.871094 57.453125 128.871094 60.058594 128.871094 L 95.898438 128.871094 C 97.101562 128.871094 97.902344 128.070312 97.902344 126.871094 C 97.902344 125.667969 97.101562 124.867188 95.898438 124.867188 L 60.058594 124.867188 C 56.253906 124.867188 53.050781 121.664062 53.050781 117.859375 L 53.050781 95.234375 C 53.050781 91.832031 55.453125 89.027344 58.65625 88.425781 C 59.054688 88.425781 59.65625 88.226562 60.058594 88.226562 L 99.101562 88.226562 C 100.304688 88.226562 101.105469 87.425781 101.105469 86.222656 L 101.105469 76.613281 C 101.105469 72.007812 104.910156 68.402344 109.3125 68.402344 L 141.550781 68.402344 C 146.15625 68.402344 149.757812 72.207031 149.757812 76.613281 C 149.757812 77.816406 150.558594 78.617188 151.761719 78.617188 C 152.964844 78.617188 153.765625 77.816406 153.765625 76.613281 C 153.765625 69.804688 148.15625 64.398438 141.550781 64.398438 L 109.515625 64.398438 C 102.707031 64.398438 97.300781 70.007812 97.300781 76.613281 L 97.300781 84.421875 L 60.058594 84.421875 C 54.050781 84.421875 49.046875 89.429688 49.046875 95.433594 L 49.046875 173.523438 C 49.046875 179.53125 54.050781 184.535156 60.058594 184.535156 L 191.007812 184.535156 C 197.011719 184.535156 202.019531 179.53125 202.019531 173.523438 L 202.019531 95.234375 C 202.019531 89.226562 197.011719 84.421875 191.007812 84.421875 Z M 137.746094 134.878906 L 113.316406 134.878906 L 113.316406 122.066406 L 137.746094 122.066406 Z M 137.746094 134.878906 "/>
<path style=" stroke:none;fill-rule:nonzero;fill:rgb(50.196078%,50.196078%,100%);fill-opacity:1;" d="M 59.457031 119.664062 C 58.253906 119.664062 57.453125 118.863281 57.453125 117.660156 L 57.453125 95.234375 C 57.453125 93.832031 58.65625 92.632812 60.058594 92.632812 L 87.289062 92.632812 C 88.488281 92.632812 89.289062 93.433594 89.289062 94.632812 C 89.289062 95.835938 88.488281 96.636719 87.289062 96.636719 L 61.460938 96.636719 L 61.460938 117.859375 C 61.460938 118.863281 60.457031 119.664062 59.457031 119.664062 Z M 59.457031 119.664062 "/>
</g>
</svg>
