<?xml version="1.0" encoding="UTF-8"?>
<svg xmlns="http://www.w3.org/2000/svg" xmlns:xlink="http://www.w3.org/1999/xlink" width="256pt" height="256pt" viewBox="0 0 256 256" version="1.1">
<g id="surface1">
<path style=" stroke:none;fill-rule:nonzero;fill:rgb(21.568627%,67.058824%,78.431373%);fill-opacity:1;" d="M 128.128906 -0.164062 C 93.707031 -0.164062 62.078125 12.957031 37.683594 37.359375 C 13.289062 61.765625 0.171875 93.40625 0.171875 127.84375 C 0.171875 162.28125 13.289062 193.921875 37.683594 218.324219 C 58.167969 238.816406 83.773438 251.355469 112.746094 255.085938 C 124.125 256.554688 141.566406 255.808594 154 253.332031 C 198.761719 244.410156 237.003906 209.726562 250.40625 165.894531 C 264.46875 119.910156 252.410156 71.207031 218.578125 37.359375 C 194.183594 12.957031 162.554688 -0.164062 128.128906 -0.164062 Z M 126.964844 9.875 C 145.484375 9.707031 163.988281 13.902344 180.855469 22.355469 C 203.96875 33.941406 221.996094 51.972656 233.578125 75.097656 C 250.222656 108.339844 250.222656 147.347656 233.578125 180.585938 C 227.769531 192.1875 221.980469 200.339844 212.765625 209.917969 C 193.261719 230.1875 167.4375 242.542969 138.71875 245.351562 C 117.296875 247.445312 95.191406 243.246094 75.40625 233.332031 C 63.8125 227.519531 55.660156 221.730469 46.085938 212.511719 C 9.15625 176.945312 -0.355469 121.101562 22.683594 75.097656 C 36.53125 47.445312 60.320312 26.527344 89.457031 16.382812 C 101.617188 12.148438 114.296875 9.988281 126.964844 9.875 Z M 126.964844 9.875 "/>
<path style=" stroke:none;fill-rule:nonzero;fill:rgb(21.568627%,67.058824%,78.431373%);fill-opacity:1;" d="M 176.117188 62.214844 L 156.75 62.214844 L 156.75 56.832031 C 156.75 53.863281 154.34375 51.453125 151.367188 51.453125 L 108.324219 51.453125 C 105.355469 51.453125 102.945312 53.863281 102.945312 56.832031 L 102.945312 62.214844 L 83.574219 62.214844 C 79.273438 62.214844 76.042969 65.441406 76.042969 69.746094 L 76.042969 183.273438 C 76.042969 188.113281 79.273438 191.34375 83.574219 191.34375 L 175.578125 191.34375 C 179.882812 191.34375 183.113281 188.113281 183.113281 183.808594 L 183.113281 69.746094 C 183.652344 65.441406 180.421875 62.214844 176.117188 62.214844 Z M 113.707031 62.214844 L 145.988281 62.214844 L 145.988281 72.976562 L 113.707031 72.976562 Z M 172.890625 180.582031 L 86.804688 180.582031 L 86.804688 72.976562 L 102.945312 72.976562 L 102.945312 78.355469 C 102.945312 81.324219 105.355469 83.734375 108.324219 83.734375 L 151.367188 83.734375 C 154.34375 83.734375 156.75 81.324219 156.75 78.355469 L 156.75 72.976562 L 172.890625 72.976562 Z M 172.890625 180.582031 "/>
<path style=" stroke:none;fill-rule:nonzero;fill:rgb(21.568627%,67.058824%,78.431373%);fill-opacity:1;" d="M 97.566406 121.398438 L 119.085938 121.398438 L 119.085938 99.875 L 97.566406 99.875 Z M 102.945312 105.257812 L 113.707031 105.257812 L 113.707031 116.019531 L 102.945312 116.019531 Z M 102.945312 105.257812 "/>
<path style=" stroke:none;fill-rule:nonzero;fill:rgb(21.568627%,67.058824%,78.431373%);fill-opacity:1;" d="M 129.847656 105.257812 L 162.128906 105.257812 L 162.128906 116.019531 L 129.847656 116.019531 Z M 129.847656 105.257812 "/>
<path style=" stroke:none;fill-rule:nonzero;fill:rgb(21.568627%,67.058824%,78.431373%);fill-opacity:1;" d="M 97.566406 132.160156 L 119.085938 132.160156 L 119.085938 153.679688 L 97.566406 153.679688 Z M 97.566406 132.160156 "/>
<path style=" stroke:none;fill-rule:nonzero;fill:rgb(21.568627%,67.058824%,78.431373%);fill-opacity:1;" d="M 129.847656 137.539062 L 162.128906 137.539062 L 162.128906 148.300781 L 129.847656 148.300781 Z M 129.847656 137.539062 "/>
</g>
</svg>
