<?xml version="1.0" encoding="UTF-8"?>
<svg xmlns="http://www.w3.org/2000/svg" xmlns:xlink="http://www.w3.org/1999/xlink" width="256pt" height="256pt" viewBox="0 0 256 256" version="1.1">
<g id="surface1">
<path style=" stroke:none;fill-rule:nonzero;fill:rgb(0%,66.666667%,83.137255%);fill-opacity:1;" d="M 128.128906 -0.164062 C 93.707031 -0.164062 62.078125 12.957031 37.683594 37.359375 C 13.289062 61.765625 0.171875 93.40625 0.171875 127.84375 C 0.171875 162.28125 13.289062 193.921875 37.683594 218.324219 C 58.167969 238.816406 83.773438 251.355469 112.746094 255.085938 C 124.125 256.554688 141.566406 255.808594 154 253.332031 C 198.761719 244.410156 237.003906 209.726562 250.40625 165.894531 C 264.46875 119.910156 252.410156 71.207031 218.578125 37.359375 C 194.183594 12.957031 162.554688 -0.164062 128.128906 -0.164062 Z M 126.964844 9.875 C 145.484375 9.707031 163.988281 13.902344 180.855469 22.355469 C 203.96875 33.941406 221.996094 51.972656 233.578125 75.097656 C 250.222656 108.339844 250.222656 147.347656 233.578125 180.585938 C 227.769531 192.1875 221.980469 200.339844 212.765625 209.917969 C 193.261719 230.1875 167.4375 242.542969 138.71875 245.351562 C 117.296875 247.445312 95.191406 243.246094 75.40625 233.332031 C 63.8125 227.519531 55.660156 221.730469 46.085938 212.511719 C 9.15625 176.945312 -0.355469 121.101562 22.683594 75.097656 C 36.53125 47.445312 60.320312 26.527344 89.457031 16.382812 C 101.617188 12.148438 114.296875 9.988281 126.964844 9.875 Z M 126.964844 9.875 "/>
<path style=" stroke:none;fill-rule:nonzero;fill:rgb(0%,66.666667%,83.137255%);fill-opacity:1;" d="M 194.6875 81.96875 C 199.160156 81.96875 202.785156 78.339844 202.785156 73.867188 C 202.785156 69.394531 199.160156 65.769531 194.6875 65.769531 C 190.410156 65.769531 186.945312 69.09375 186.644531 73.292969 L 156.550781 78.472656 C 155.011719 75.4375 152.15625 73.195312 148.707031 72.558594 L 148.273438 59.140625 C 150.914062 58.046875 152.773438 55.445312 152.773438 52.410156 C 152.773438 48.382812 149.511719 45.121094 145.488281 45.121094 C 141.464844 45.121094 138.199219 48.382812 138.199219 52.410156 C 138.199219 55.816406 140.550781 58.65625 143.710938 59.453125 L 144.140625 72.667969 C 141.515625 73.285156 139.261719 74.824219 137.722656 76.9375 L 113.882812 61.65625 C 113.882812 61.566406 113.910156 61.484375 113.910156 61.394531 C 113.910156 56.917969 110.28125 53.292969 105.808594 53.292969 C 101.335938 53.292969 97.710938 56.917969 97.710938 61.394531 C 97.710938 65.867188 101.335938 69.492188 105.808594 69.492188 C 108.515625 69.492188 110.894531 68.15625 112.367188 66.117188 L 135.816406 81.144531 C 135.660156 81.894531 135.570312 82.667969 135.570312 83.460938 C 135.570312 85.320312 136.066406 87.039062 136.871094 88.578125 L 95.890625 129.75 C 93.898438 127.851562 91.214844 126.667969 88.242188 126.667969 C 85.988281 126.667969 83.898438 127.347656 82.148438 128.5 L 63.066406 109.542969 C 64.488281 107.949219 65.375 105.871094 65.375 103.570312 C 65.375 98.601562 61.347656 94.570312 56.375 94.570312 C 51.40625 94.570312 47.375 98.601562 47.375 103.570312 C 47.375 108.539062 51.40625 112.574219 56.375 112.574219 C 57.351562 112.574219 58.269531 112.378906 59.144531 112.09375 L 78.929688 131.75 C 77.800781 133.488281 77.132812 135.554688 77.132812 137.78125 C 77.132812 138.332031 77.214844 138.863281 77.292969 139.390625 L 51.101562 149.070312 C 49.816406 146.996094 47.539062 145.597656 44.917969 145.597656 C 40.890625 145.597656 37.625 148.859375 37.625 152.882812 C 37.625 156.90625 40.890625 160.171875 44.917969 160.171875 C 48.710938 160.171875 51.792969 157.261719 52.136719 153.554688 L 78.980469 143.679688 C 80.5625 146.183594 83.914062 148.023438 86.199219 148.648438 L 86.199219 165.046875 C 83.914062 166.007812 81.074219 168.710938 81.074219 171.929688 C 81.074219 175.957031 84.277344 179.222656 88.304688 179.222656 C 92.332031 179.222656 95.6875 175.957031 95.6875 171.929688 C 95.6875 168.710938 93.058594 166.007812 90.773438 165.046875 L 90.773438 148.648438 C 93.058594 147.886719 97.273438 145.335938 98.648438 141.960938 L 135.707031 149.578125 C 135.679688 149.851562 135.597656 150.117188 135.597656 150.402344 C 135.597656 154.875 139.207031 158.5 143.679688 158.5 C 144.328125 158.5 144.941406 158.40625 145.542969 158.261719 L 153.1875 173.375 C 151.078125 174.839844 149.6875 177.269531 149.6875 180.03125 C 149.6875 181.21875 149.957031 182.339844 150.417969 183.355469 L 138.820312 194.949219 C 137.835938 194.457031 136.742188 194.148438 135.5625 194.148438 C 131.539062 194.148438 128.273438 197.410156 128.273438 201.4375 C 128.273438 205.460938 131.539062 208.722656 135.5625 208.722656 C 139.59375 208.722656 142.855469 205.460938 142.855469 201.4375 C 142.855469 200.257812 142.546875 199.164062 142.050781 198.179688 L 153.40625 186.824219 C 154.671875 187.640625 156.167969 188.125 157.785156 188.125 C 160.023438 188.125 162.046875 187.21875 163.511719 185.753906 L 184.773438 200 C 184.128906 201.085938 183.734375 202.339844 183.734375 203.695312 C 183.734375 207.722656 187 210.984375 191.023438 210.984375 C 195.050781 210.984375 198.316406 207.722656 198.316406 203.695312 C 198.316406 199.667969 195.046875 196.40625 191.023438 196.40625 C 190.09375 196.40625 189.210938 196.597656 188.394531 196.917969 L 165.699219 181.714844 C 165.816406 181.167969 165.882812 180.605469 165.882812 180.027344 C 165.882812 175.550781 162.257812 171.925781 157.785156 171.925781 C 157.714844 171.925781 157.652344 171.945312 157.585938 171.945312 L 149.507812 155.980469 C 150.894531 154.527344 151.761719 152.570312 151.761719 150.398438 C 151.761719 145.925781 148.132812 142.300781 143.660156 142.300781 C 141.140625 142.300781 138.921875 143.472656 137.4375 145.277344 L 99.320312 137.460938 C 99.28125 136.09375 99.011719 134.789062 98.519531 133.585938 L 139.789062 92.125 C 141.6875 93.632812 144.058594 94.570312 146.675781 94.570312 C 149.007812 94.570312 151.167969 93.84375 152.957031 92.617188 L 174.035156 113.460938 C 173.554688 114.433594 173.253906 115.515625 173.253906 116.675781 C 173.253906 120.703125 176.519531 123.964844 180.542969 123.964844 C 184.566406 123.964844 187.832031 120.699219 187.832031 116.675781 C 187.832031 112.652344 184.566406 109.386719 180.542969 109.386719 C 179.351562 109.386719 178.242188 109.699219 177.25 110.207031 L 156.09375 89.292969 C 157.148438 87.59375 157.785156 85.609375 157.785156 83.464844 C 157.785156 83.273438 157.734375 83.097656 157.730469 82.910156 L 187.628906 77.765625 C 189.007812 80.257812 191.632812 81.96875 194.6875 81.96875 Z M 194.6875 81.96875 "/>
</g>
</svg>
