<?xml version="1.0" encoding="UTF-8"?>
<svg xmlns="http://www.w3.org/2000/svg" xmlns:xlink="http://www.w3.org/1999/xlink" width="256pt" height="256pt" viewBox="0 0 256 256" version="1.1">
<g id="surface1">
<path style=" stroke:none;fill-rule:nonzero;fill:rgb(100%,16.470588%,49.803922%);fill-opacity:1;" d="M 127.976562 0.03125 C 93.605469 0.03125 62.03125 13.128906 37.671875 37.484375 C 13.316406 61.839844 0.21875 93.417969 0.21875 127.789062 C 0.21875 162.160156 13.316406 193.734375 37.671875 218.089844 C 58.125 238.542969 83.6875 251.058594 112.617188 254.78125 C 123.976562 256.246094 141.390625 255.503906 153.804688 253.03125 C 198.496094 244.125 236.679688 209.507812 250.0625 165.765625 C 264.101562 119.871094 252.058594 71.261719 218.28125 37.484375 C 193.921875 13.128906 162.347656 0.03125 127.976562 0.03125 Z M 126.8125 10.050781 C 145.300781 9.882812 163.777344 14.070312 180.617188 22.507812 C 203.695312 34.070312 221.695312 52.066406 233.257812 75.148438 C 249.878906 108.324219 249.878906 147.253906 233.257812 180.429688 C 227.457031 192.003906 221.679688 200.144531 212.476562 209.703125 C 193.003906 229.929688 167.222656 242.261719 138.546875 245.0625 C 117.160156 247.152344 95.089844 242.964844 75.335938 233.066406 C 63.757812 227.269531 55.621094 221.492188 46.0625 212.289062 C 9.191406 176.796875 -0.304688 121.058594 22.695312 75.148438 C 36.523438 47.550781 60.273438 26.671875 89.363281 16.546875 C 101.507812 12.320312 114.164062 10.167969 126.8125 10.050781 Z M 126.8125 10.050781 "/>
<path style=" stroke:none;fill-rule:nonzero;fill:rgb(100%,16.470588%,49.803922%);fill-opacity:1;" d="M 125.589844 128.898438 C 125.308594 128.898438 125.308594 128.898438 125.03125 128.898438 L 31.992188 110.179688 C 30.597656 109.898438 29.757812 108.78125 29.757812 107.386719 C 29.757812 105.988281 30.597656 104.871094 31.992188 104.589844 L 125.03125 82.800781 C 125.589844 82.800781 125.867188 82.800781 126.425781 82.800781 L 219.464844 104.589844 C 220.863281 104.871094 221.699219 105.988281 221.699219 107.386719 C 221.699219 108.78125 220.582031 109.898438 219.464844 110.179688 L 126.425781 128.898438 C 125.867188 128.898438 125.867188 128.898438 125.589844 128.898438 Z M 45.960938 106.828125 L 125.589844 123.03125 L 205.214844 106.828125 L 125.589844 88.109375 Z M 45.960938 106.828125 "/>
<path style=" stroke:none;fill-rule:nonzero;fill:rgb(100%,16.470588%,49.803922%);fill-opacity:1;" d="M 128.382812 181.144531 C 127.265625 181.144531 126.425781 181.144531 125.308594 181.144531 C 102.957031 182.261719 67.476562 170.808594 65.242188 168.851562 L 64.402344 168.011719 L 64.402344 122.191406 L 125.589844 134.488281 L 180.910156 122.191406 L 180.910156 168.011719 L 180.070312 168.851562 C 178.113281 170.25 149.617188 181.144531 128.382812 181.144531 Z M 70.269531 164.660156 C 77.253906 167.453125 105.472656 176.117188 125.308594 175.277344 C 142.910156 176.117188 168.617188 167.453125 175.042969 164.660156 L 175.042969 129.457031 L 125.589844 140.355469 L 70.269531 129.179688 Z M 70.269531 164.660156 "/>
<path style=" stroke:none;fill-rule:nonzero;fill:rgb(100%,16.470588%,49.803922%);fill-opacity:1;" d="M 195.4375 111.296875 C 195.4375 111.296875 125.308594 105.429688 125.308594 105.429688 C 123.632812 105.429688 122.515625 103.753906 122.515625 102.355469 C 122.515625 100.679688 124.191406 99.5625 125.589844 99.5625 L 195.4375 105.429688 C 197.394531 105.710938 196.832031 111.296875 195.4375 111.296875 Z M 195.4375 111.296875 "/>
<path style=" stroke:none;fill-rule:nonzero;fill:rgb(100%,16.470588%,49.803922%);fill-opacity:1;" d="M 195.4375 152.089844 C 193.761719 152.089844 192.644531 150.691406 192.644531 149.292969 L 192.644531 108.503906 C 192.644531 106.828125 194.039062 105.710938 195.4375 105.710938 C 196.832031 105.710938 198.230469 107.105469 198.230469 108.503906 L 198.230469 149.292969 C 198.230469 150.691406 197.113281 152.089844 195.4375 152.089844 Z M 195.4375 152.089844 "/>
<path style=" stroke:none;fill-rule:nonzero;fill:rgb(100%,16.470588%,49.803922%);fill-opacity:1;" d="M 192.644531 154.882812 L 198.511719 154.882812 L 198.511719 166.617188 L 192.644531 166.617188 Z M 192.644531 154.882812 "/>
</g>
</svg>
