<?xml version="1.0" encoding="UTF-8"?>
<svg xmlns="http://www.w3.org/2000/svg" xmlns:xlink="http://www.w3.org/1999/xlink" width="256pt" height="256pt" viewBox="0 0 256 256" version="1.1">
<g id="surface1">
<path style=" stroke:none;fill-rule:nonzero;fill:rgb(44.313725%,21.568627%,78.431373%);fill-opacity:1;" d="M 127.976562 0.03125 C 93.605469 0.03125 62.03125 13.128906 37.671875 37.484375 C 13.316406 61.839844 0.21875 93.417969 0.21875 127.789062 C 0.21875 162.160156 13.316406 193.734375 37.671875 218.089844 C 58.125 238.542969 83.6875 251.058594 112.617188 254.78125 C 123.976562 256.246094 141.390625 255.503906 153.804688 253.03125 C 198.496094 244.125 236.679688 209.507812 250.0625 165.765625 C 264.101562 119.871094 252.058594 71.261719 218.28125 37.484375 C 193.921875 13.128906 162.347656 0.03125 127.976562 0.03125 Z M 126.8125 10.050781 C 145.300781 9.882812 163.777344 14.070312 180.617188 22.507812 C 203.695312 34.070312 221.695312 52.066406 233.257812 75.148438 C 249.878906 108.324219 249.878906 147.253906 233.257812 180.429688 C 227.457031 192.003906 221.679688 200.144531 212.476562 209.703125 C 193.003906 229.929688 167.222656 242.261719 138.546875 245.0625 C 117.160156 247.152344 95.089844 242.964844 75.335938 233.066406 C 63.757812 227.269531 55.621094 221.492188 46.0625 212.289062 C 9.191406 176.796875 -0.304688 121.058594 22.695312 75.148438 C 36.523438 47.550781 60.273438 26.671875 89.363281 16.546875 C 101.507812 12.320312 114.164062 10.167969 126.8125 10.050781 Z M 126.8125 10.050781 "/>
<path style="fill-rule:nonzero;fill:rgb(44.313725%,21.568627%,78.431373%);fill-opacity:1;stroke-width:3.847319;stroke-linecap:butt;stroke-linejoin:miter;stroke:rgb(44.313725%,21.568627%,78.431373%);stroke-opacity:1;stroke-miterlimit:4;" d="M 205.727118 249.250916 C 202.737372 249.250916 199.771582 248.786163 196.901618 247.866241 C 185.00971 244.038025 176.989141 232.941467 176.965185 220.55127 L 117.778751 199.258911 C 110.299595 206.000214 99.346774 208.410217 89.687594 205.305481 C 82.371341 202.948181 76.411013 197.893402 72.903811 191.051483 C 69.396609 184.214355 68.759371 176.418976 71.116671 169.102722 C 74.959261 157.158112 85.964785 149.142334 98.503513 149.142334 C 101.483676 149.142334 104.454257 149.607086 107.319431 150.531799 C 108.210605 150.814484 109.111362 151.169037 110.060032 151.590668 L 151.169042 98.005219 C 146.708379 90.808746 145.630345 82.170105 148.231999 74.082458 C 152.07459 62.137848 163.080114 54.117279 175.609259 54.117279 C 178.603796 54.117279 181.569586 54.582031 184.439551 55.506744 C 191.755804 57.864044 197.711341 62.923615 201.218543 69.760742 C 204.730536 76.602661 205.367774 84.39325 203.010474 91.709503 C 199.163092 103.649323 188.16236 111.669891 175.623632 111.674683 C 172.643469 111.674683 169.672887 111.205139 166.807714 110.285217 C 165.547613 109.87796 164.311468 109.379669 163.113653 108.799927 L 122.378361 161.896667 C 126.982762 168.767334 128.424931 177.31015 126.316776 185.273224 L 181.411474 205.089874 C 186.657904 196.786621 195.818793 191.693512 205.722327 191.693512 C 208.702491 191.693512 211.668281 192.163055 214.533454 193.087769 C 229.635505 197.946106 237.972298 214.183685 233.109169 229.290527 C 229.266578 241.230347 218.261054 249.250916 205.727118 249.250916 Z M 117.299625 194.922821 C 117.529606 194.922821 117.764378 194.961151 117.984775 195.037811 L 179.705786 217.235718 C 180.544256 217.542358 181.085669 218.356873 181.042547 219.243256 C 180.48197 230.406891 187.515539 240.593109 198.147345 244.01886 C 200.614844 244.809418 203.163794 245.211884 205.73191 245.211884 C 216.507453 245.211884 225.9654 238.312469 229.266578 228.054382 C 233.444557 215.070068 226.281623 201.113129 213.3021 196.93515 C 210.839393 196.144592 208.285651 195.742126 205.727118 195.742126 C 196.714758 195.742126 188.416296 200.638794 184.080206 208.539581 C 183.596289 209.402008 182.551794 209.7901 181.62229 209.459503 L 123.130589 188.421082 C 122.114842 188.061737 121.563847 186.954956 121.884861 185.924835 C 121.899235 185.886505 122.03339 185.527161 122.042973 185.484039 C 124.496098 177.875519 123.077885 169.490814 118.253086 163.065735 C 117.706882 162.332672 117.711674 161.331299 118.262669 160.61261 L 160.933629 104.995667 C 161.542119 104.195526 162.6489 103.970337 163.52091 104.463837 C 164.96787 105.268768 166.491491 105.934753 168.043859 106.433044 C 170.506567 107.228394 173.055517 107.630859 175.623632 107.630859 C 186.399176 107.626068 195.857123 100.731445 199.163092 90.468567 C 201.185004 84.182434 200.6388 77.479462 197.625098 71.605377 C 194.611395 65.726501 189.489539 61.371246 183.198614 59.349335 C 180.731115 58.553986 178.177374 58.15152 175.609259 58.15152 C 164.843297 58.15152 155.380559 65.046143 152.07459 75.318604 C 149.712499 82.668396 150.886357 90.550018 155.303899 96.94635 C 155.806981 97.66983 155.778234 98.632874 155.246404 99.327606 L 112.264011 155.347015 C 111.674686 156.123199 110.611026 156.357971 109.7486 155.917175 C 108.407047 155.236816 107.242771 154.748108 106.083286 154.364807 C 103.615787 153.574249 101.066837 153.171783 98.503513 153.171783 C 87.723178 153.171783 78.270022 160.071198 74.959261 170.334076 C 72.942141 176.625 73.488345 183.327972 76.497256 189.197266 C 79.51575 195.076141 84.637606 199.431396 90.928531 201.453308 C 99.591129 204.241821 109.437168 201.846191 115.881412 195.492981 C 116.269504 195.119263 116.782169 194.922821 117.299625 194.922821 Z M 117.299625 194.922821 " transform="matrix(0.815287,0,0,0.815287,0,0)"/>
</g>
</svg>
