<?xml version="1.0" encoding="UTF-8"?>
<svg xmlns="http://www.w3.org/2000/svg" xmlns:xlink="http://www.w3.org/1999/xlink" width="256pt" height="256pt" viewBox="0 0 256 256" version="1.1">
<g id="surface1">
<path style=" stroke:none;fill-rule:nonzero;fill:rgb(98.823529%,59.215686%,1.176471%);fill-opacity:1;" d="M 127.976562 0.03125 C 93.605469 0.03125 62.03125 13.128906 37.671875 37.484375 C 13.316406 61.839844 0.21875 93.417969 0.21875 127.789062 C 0.21875 162.160156 13.316406 193.734375 37.671875 218.089844 C 58.125 238.542969 83.6875 251.058594 112.617188 254.78125 C 123.976562 256.246094 141.390625 255.503906 153.804688 253.03125 C 198.496094 244.125 236.679688 209.507812 250.0625 165.765625 C 264.101562 119.871094 252.058594 71.261719 218.28125 37.484375 C 193.921875 13.128906 162.347656 0.03125 127.976562 0.03125 Z M 126.8125 10.050781 C 145.300781 9.882812 163.777344 14.070312 180.617188 22.507812 C 203.695312 34.070312 221.695312 52.066406 233.257812 75.148438 C 249.878906 108.324219 249.878906 147.253906 233.257812 180.429688 C 227.457031 192.003906 221.679688 200.144531 212.476562 209.703125 C 193.003906 229.929688 167.222656 242.261719 138.546875 245.0625 C 117.160156 247.152344 95.089844 242.964844 75.335938 233.066406 C 63.757812 227.269531 55.621094 221.492188 46.0625 212.289062 C 9.191406 176.796875 -0.304688 121.058594 22.695312 75.148438 C 36.523438 47.550781 60.273438 26.671875 89.363281 16.546875 C 101.507812 12.320312 114.164062 10.167969 126.8125 10.050781 Z M 126.8125 10.050781 "/>
<path style=" stroke:none;fill-rule:nonzero;fill:rgb(98.823529%,59.215686%,1.176471%);fill-opacity:1;" d="M 48.019531 79.492188 C 47.660156 79.492188 47.347656 79.613281 47.125 79.832031 C 46.90625 80.054688 46.785156 80.367188 46.785156 80.726562 L 46.785156 165.785156 C 46.785156 166.144531 46.90625 166.460938 47.125 166.679688 C 47.347656 166.902344 47.660156 167.027344 48.019531 167.027344 C 105.792969 170.738281 167.960938 167.371094 210.367188 167.027344 C 210.636719 167.027344 210.9375 166.902344 211.15625 166.679688 C 211.367188 166.46875 211.492188 166.140625 211.390625 165.78125 L 211.390625 80.726562 C 211.390625 80.367188 211.269531 80.054688 211.046875 79.832031 C 210.828125 79.613281 210.511719 79.492188 210.152344 79.492188 Z M 54.679688 87.960938 C 107.683594 90.78125 150.589844 89.773438 203.988281 87.46875 L 203.941406 161.089844 L 84.285156 161.71875 L 55.941406 161.902344 Z M 116.347656 102.578125 C 116.136719 102.554688 115.917969 102.589844 115.71875 102.683594 C 115.324219 102.878906 115.070312 103.285156 115.070312 103.726562 L 115.078125 142.183594 C 115.078125 142.625 115.328125 143.027344 115.726562 143.222656 C 115.886719 143.296875 116.058594 143.335938 116.230469 143.335938 C 116.484375 143.335938 116.738281 143.253906 116.945312 143.089844 L 155.34375 123.855469 C 155.621094 123.636719 155.78125 123.300781 155.78125 122.945312 C 155.78125 122.59375 155.621094 122.261719 155.34375 122.039062 L 116.9375 102.816406 C 116.765625 102.679688 116.558594 102.601562 116.347656 102.578125 Z M 152.761719 122.949219 L 117.386719 139.800781 C 129.242188 134.488281 142.25 128.1875 152.761719 122.949219 Z M 90.652344 172.0625 C 88.988281 172.0625 87.636719 173.039062 87.636719 174.246094 L 161.664062 174.246094 C 161.664062 173.042969 160.316406 172.0625 158.652344 172.0625 Z M 86.171875 176.058594 C 84.289062 176.058594 82.761719 177.167969 82.761719 178.535156 L 166.617188 178.535156 C 166.617188 177.167969 165.089844 176.058594 163.199219 176.058594 Z M 86.171875 176.058594 "/>
</g>
</svg>
