<?xml version="1.0" encoding="UTF-8" standalone="no"?>
<svg
   xmlns:dc="http://purl.org/dc/elements/1.1/"
   xmlns:cc="http://creativecommons.org/ns#"
   xmlns:rdf="http://www.w3.org/1999/02/22-rdf-syntax-ns#"
   xmlns:svg="http://www.w3.org/2000/svg"
   xmlns="http://www.w3.org/2000/svg"
   xmlns:sodipodi="http://sodipodi.sourceforge.net/DTD/sodipodi-0.dtd"
   xmlns:inkscape="http://www.inkscape.org/namespaces/inkscape"
   width="104"
   height="104"
   viewBox="0 0 26 26"
   style="fill: rgb(192, 57, 43);"
   id="svg2"
   version="1.1"
   inkscape:version="0.91 r13725"
   sodipodi:docname="icon.svg"
   inkscape:export-filename="D:\Programming\Repositories\website-svg\projects\vagrant-desktop\icon.png"
   inkscape:export-xdpi="203.743"
   inkscape:export-ydpi="203.743">
  <metadata
     id="metadata10">
    <rdf:RDF>
      <cc:Work
         rdf:about="">
        <dc:format>image/svg+xml</dc:format>
        <dc:type
           rdf:resource="http://purl.org/dc/dcmitype/StillImage" />
      </cc:Work>
    </rdf:RDF>
  </metadata>
  <defs
     id="defs8" />
  <sodipodi:namedview
     pagecolor="#ffffff"
     bordercolor="#666666"
     borderopacity="1"
     objecttolerance="10"
     gridtolerance="10"
     guidetolerance="10"
     inkscape:pageopacity="0"
     inkscape:pageshadow="2"
     inkscape:window-width="1920"
     inkscape:window-height="1017"
     id="namedview6"
     showgrid="false"
     inkscape:zoom="4.5384615"
     inkscape:cx="-61.685433"
     inkscape:cy="51.271705"
     inkscape:window-x="1912"
     inkscape:window-y="-8"
     inkscape:window-maximized="1"
     inkscape:current-layer="svg2" />
  <g
     id="g4154">
    <path
       inkscape:connector-curvature="0"
       id="path4"
       d="m 12.723365,3.1620763 -9.693704,3.8238983 0,10.4730974 11.690899,5.748025 8.573327,-5.748025 0,-10.4243853 0,-0.048712 -10.570522,-3.8238984 z m 0.02436,1.6805668 8.743819,3.1419292 -2.459961,1.3152262 -8.865598,-3.4342017 2.58174,-1.0229537 z M 9.069959,6.2796495 18.10605,9.7869193 15.183325,11.32135 5.7088254,7.6192317 9.069959,6.2796495 Z M 4.6371597,8.0332844 14.72056,11.978963 l 0,9.352719 -0.12178,0.07307 -10.0103324,-4.91992 0,-8.4271896 0.048712,-0.024356 z M 20.176313,10.420176 c 0.133203,-0.01052 0.213359,0.08379 0.219205,0.267917 0.0078,0.24317 -0.139122,0.548693 -0.340985,0.681969 l -1.558786,1.022954 c -0.24395,0.158216 -0.452633,0.0567 -0.462765,-0.219205 -0.0094,-0.276684 0.168544,-0.634426 0.414053,-0.779393 l 1.583142,-0.92553 c 0.05066,-0.03059 0.101735,-0.0452 0.146136,-0.04871 z" />
    <g
       transform="matrix(0.03079969,0,0,0.03079969,-19.403465,7.8636099)"
       id="g4150">
      <path
         style="fill:#c0392b;fill-opacity:1;stroke:#a3fa00;stroke-width:0.83653325;stroke-opacity:1"
         inkscape:connector-curvature="0"
         d="m 1061.5375,213.27312 c 12.7951,65.47796 -29.9156,118.56185 -95.39696,118.56185 -65.48131,0 -128.93568,-53.08305 -141.73092,-118.56185 -12.79606,-65.48299 29.91165,-118.565213 95.39296,-118.565213 65.48136,0 128.93892,53.082223 141.73492,118.565213 z"
         id="path4142" />
      <path
         style="fill:#ffffff"
         inkscape:connector-curvature="0"
         d="m 859.25829,197.44423 c -8.74428,0 -14.44515,7.08544 -12.73643,15.82972 1.70807,8.74094 10.17824,15.82721 18.92252,15.82721 8.74093,0 14.44248,-7.08627 12.73441,-15.82721 -1.70889,-8.74512 -10.17873,-15.82972 -18.9205,-15.82972 z m 127.08001,71.94353 c -6.71735,4.37089 -7.41793,14.04791 -1.56984,21.61602 5.85128,7.57147 16.03424,10.16472 22.75154,5.79383 6.715,-4.37005 7.4172,-14.04706 1.567,-21.61769 -5.8489,-7.56812 -16.03369,-10.1622 -22.7487,-5.79216 z m -89.60402,-56.11632 c -3.057,-15.64401 2.01674,-29.46186 12.26971,-37.82887 l -15.36063,-19.38498 c -12.04438,9.2554 -19.5839,23.40453 -20.62616,39.97625 5.79637,4.07559 10.20386,10.28183 11.56342,17.23928 1.35923,6.95577 -0.62274,13.16201 -4.82728,17.23676 7.51832,16.5734 20.58846,30.72252 36.24989,39.97709 l 7.78508,-19.38666 c -13.52265,-8.36533 -23.99654,-22.18235 -27.05403,-37.82887 z m 37.20371,-46.23937 c 24.15657,0 47.59086,18.52168 54.28299,42.13869 l 22.49522,-0.3296 c -4.5173,-17.4367 -15.19382,-33.09492 -29.14824,-44.60311 -5.57371,2.27369 -12.59349,1.92904 -19.28038,-1.5409 -6.69505,-3.47328 -11.61526,-9.33236 -13.89172,-15.69085 -6.16535,-1.61869 -12.49386,-2.50123 -18.85904,-2.50123 -10.94688,0 -20.78677,2.56983 -29.0843,7.12057 l 14.84835,19.70872 c 5.38185,-2.7547 11.67633,-4.30229 18.63712,-4.30229 z m 18.07148,92.47958 c -6.96163,0 -13.8601,-1.54758 -20.31939,-4.30229 l -7.14711,19.7104 c 10.07657,4.54907 20.92181,7.11973 31.86868,7.11973 6.36518,0 12.34877,-0.88254 17.88234,-2.50123 -0.20856,-6.35849 2.42262,-12.21757 7.7606,-15.69336 5.33108,-3.46827 12.21616,-3.81292 18.67861,-1.53839 9.4559,-11.50902 14.0127,-27.16725 11.7138,-44.60395 l -22.62406,-0.32959 c 2.54023,23.62035 -13.6569,42.13868 -37.81347,42.13868 z m 12.39472,-102.35737 c 8.42507,4.37256 17.59601,1.77847 20.48633,-5.78964 2.8922,-7.57146 -1.59038,-17.24849 -10.01612,-21.62021 -8.42375,-4.37005 -17.59402,-1.7768 -20.48619,5.79466 -2.89116,7.56813 1.59324,17.24598 10.01598,21.61519 z"
         id="path4144" />
    </g>
  </g>
</svg>
