<?xml version="1.0" encoding="UTF-8"?>
<svg xmlns="http://www.w3.org/2000/svg" xmlns:xlink="http://www.w3.org/1999/xlink" width="256pt" height="256pt" viewBox="0 0 256 256" version="1.1">
<g id="surface1">
<path style=" stroke:none;fill-rule:nonzero;fill:rgb(100%,80%,0%);fill-opacity:1;" d="M 127.976562 0.03125 C 93.605469 0.03125 62.03125 13.128906 37.671875 37.484375 C 13.316406 61.839844 0.21875 93.417969 0.21875 127.789062 C 0.21875 162.160156 13.316406 193.734375 37.671875 218.089844 C 58.125 238.542969 83.6875 251.058594 112.617188 254.78125 C 123.976562 256.246094 141.390625 255.503906 153.804688 253.03125 C 198.496094 244.125 236.679688 209.507812 250.0625 165.765625 C 264.101562 119.871094 252.058594 71.261719 218.28125 37.484375 C 193.921875 13.128906 162.347656 0.03125 127.976562 0.03125 Z M 126.8125 10.050781 C 145.300781 9.882812 163.777344 14.070312 180.617188 22.507812 C 203.695312 34.070312 221.695312 52.066406 233.257812 75.148438 C 249.878906 108.324219 249.878906 147.253906 233.257812 180.429688 C 227.457031 192.003906 221.679688 200.144531 212.476562 209.703125 C 193.003906 229.929688 167.222656 242.261719 138.546875 245.0625 C 117.160156 247.152344 95.089844 242.964844 75.335938 233.066406 C 63.757812 227.269531 55.621094 221.492188 46.0625 212.289062 C 9.191406 176.796875 -0.304688 121.058594 22.695312 75.148438 C 36.523438 47.550781 60.273438 26.671875 89.363281 16.546875 C 101.507812 12.320312 114.164062 10.167969 126.8125 10.050781 Z M 126.8125 10.050781 "/>
<path style=" stroke:none;fill-rule:nonzero;fill:rgb(100%,80%,0%);fill-opacity:1;" d="M 186.203125 63.398438 C 183.800781 63.398438 181.855469 65.347656 181.855469 67.746094 L 181.855469 95.871094 L 68.789062 95.871094 L 68.789062 67.746094 C 68.789062 65.347656 66.839844 63.398438 64.4375 63.398438 C 62.035156 63.398438 60.089844 65.347656 60.089844 67.746094 L 60.089844 189.511719 C 60.089844 191.910156 62.035156 193.859375 64.4375 193.859375 C 66.839844 193.859375 68.789062 191.910156 68.789062 189.511719 L 68.789062 188.0625 L 181.855469 188.0625 L 181.855469 189.511719 C 181.855469 191.910156 183.800781 193.859375 186.203125 193.859375 C 188.601562 193.859375 190.550781 191.910156 190.550781 189.511719 L 190.550781 67.746094 C 190.550781 65.347656 188.601562 63.398438 186.203125 63.398438 Z M 181.855469 104.566406 L 181.855469 137.617188 L 68.789062 137.617188 L 68.789062 104.566406 Z M 68.789062 179.363281 L 68.789062 146.3125 L 181.855469 146.3125 L 181.855469 179.363281 Z M 68.789062 179.363281 "/>
<path style=" stroke:none;fill-rule:nonzero;fill:rgb(100%,80%,0%);fill-opacity:1;" d="M 77.003906 66.296875 L 103.097656 66.296875 L 103.097656 92.390625 L 77.003906 92.390625 Z M 77.003906 66.296875 "/>
<path style=" stroke:none;fill-rule:nonzero;fill:rgb(100%,80%,0%);fill-opacity:1;" d="M 112.273438 66.296875 L 138.367188 66.296875 L 138.367188 92.390625 L 112.273438 92.390625 Z M 112.273438 66.296875 "/>
<path style=" stroke:none;fill-rule:nonzero;fill:rgb(100%,80%,0%);fill-opacity:1;" d="M 77.003906 108.335938 L 103.097656 108.335938 L 103.097656 134.429688 L 77.003906 134.429688 Z M 77.003906 108.335938 "/>
<path style=" stroke:none;fill-rule:nonzero;fill:rgb(100%,80%,0%);fill-opacity:1;" d="M 112.273438 108.335938 L 138.367188 108.335938 L 138.367188 134.429688 L 112.273438 134.429688 Z M 112.273438 108.335938 "/>
<path style=" stroke:none;fill-rule:nonzero;fill:rgb(100%,80%,0%);fill-opacity:1;" d="M 147.542969 108.046875 L 173.636719 108.046875 L 173.636719 134.136719 L 147.542969 134.136719 Z M 147.542969 108.046875 "/>
<path style=" stroke:none;fill-rule:nonzero;fill:rgb(100%,80%,0%);fill-opacity:1;" d="M 77.003906 149.792969 L 103.097656 149.792969 L 103.097656 175.882812 L 77.003906 175.882812 Z M 77.003906 149.792969 "/>
<path style=" stroke:none;fill-rule:nonzero;fill:rgb(100%,80%,0%);fill-opacity:1;" d="M 112.273438 149.792969 L 138.367188 149.792969 L 138.367188 175.882812 L 112.273438 175.882812 Z M 112.273438 149.792969 "/>
</g>
</svg>
