<svg xmlns="http://www.w3.org/2000/svg" viewBox="0 0 400 400" height="400" width="400" preserveAspectRatio="none"><path d="M200.2-0.3C146.4-0.3 97 20.2 58.9 58.4 20.8 96.5 0.3 145.9 0.3 199.8c0 53.8 20.5 103.2 58.6 141.4 32 32 72 51.6 117.3 57.4 17.8 2.3 45 1.1 64.5-2.7C310.6 381.9 370.3 327.7 391.3 259.2 413.2 187.4 394.4 111.3 341.5 58.4 303.4 20.2 254-0.3 200.2-0.3ZM198.4 15.4c28.9-0.3 57.8 6.3 84.2 19.5 36.1 18.1 64.3 46.3 82.4 82.4 26 51.9 26 112.9 0 164.8-9.1 18.1-18.1 30.9-32.5 45.8-30.5 31.7-70.8 51-115.7 55.4-33.5 3.3-68-3.3-98.9-18.8C99.7 355.5 87 346.5 72 332.1 14.3 276.5-0.6 189.2 35.4 117.3 57.1 74.1 94.3 41.4 139.8 25.6c19-6.6 38.8-10 58.6-10.2z"/></svg>