<?xml version="1.0" encoding="UTF-8"?>
<svg xmlns="http://www.w3.org/2000/svg" xmlns:xlink="http://www.w3.org/1999/xlink" width="256pt" height="256pt" viewBox="0 0 256 256" version="1.1">
<g id="surface1">
<path style=" stroke:none;fill-rule:nonzero;fill:rgb(50.196078%,0%,50.196078%);fill-opacity:1;" d="M 127.976562 0.03125 C 93.605469 0.03125 62.03125 13.128906 37.671875 37.484375 C 13.316406 61.839844 0.21875 93.417969 0.21875 127.789062 C 0.21875 162.160156 13.316406 193.734375 37.671875 218.089844 C 58.125 238.542969 83.6875 251.058594 112.617188 254.78125 C 123.976562 256.246094 141.390625 255.503906 153.804688 253.03125 C 198.496094 244.125 236.679688 209.507812 250.0625 165.765625 C 264.101562 119.871094 252.058594 71.261719 218.28125 37.484375 C 193.921875 13.128906 162.347656 0.03125 127.976562 0.03125 Z M 126.8125 10.050781 C 145.300781 9.882812 163.777344 14.070312 180.617188 22.507812 C 203.695312 34.070312 221.695312 52.066406 233.257812 75.148438 C 249.878906 108.324219 249.878906 147.253906 233.257812 180.429688 C 227.457031 192.003906 221.679688 200.144531 212.476562 209.703125 C 193.003906 229.929688 167.222656 242.261719 138.546875 245.0625 C 117.160156 247.152344 95.089844 242.964844 75.335938 233.066406 C 63.757812 227.269531 55.621094 221.492188 46.0625 212.289062 C 9.191406 176.796875 -0.304688 121.058594 22.695312 75.148438 C 36.523438 47.550781 60.273438 26.671875 89.363281 16.546875 C 101.507812 12.320312 114.164062 10.167969 126.8125 10.050781 Z M 126.8125 10.050781 "/>
<path style=" stroke:none;fill-rule:nonzero;fill:rgb(50.196078%,0%,50.196078%);fill-opacity:1;" d="M 87.824219 46.558594 L 85.882812 56.316406 L 136.847656 56.316406 Z M 87.824219 46.558594 "/>
<path style=" stroke:none;fill-rule:nonzero;fill:rgb(50.196078%,0%,50.196078%);fill-opacity:1;" d="M 173.148438 202.605469 L 175.085938 192.851562 L 124.121094 192.851562 Z M 173.148438 202.605469 "/>
<path style=" stroke:none;fill-rule:nonzero;fill:rgb(50.196078%,0%,50.196078%);fill-opacity:1;" d="M 59.339844 176.523438 L 63.972656 177.449219 L 63.972656 153.246094 Z M 59.339844 176.523438 "/>
<path style=" stroke:none;fill-rule:nonzero;fill:rgb(50.196078%,0%,50.196078%);fill-opacity:1;" d="M 189.746094 79.234375 L 183.210938 112.050781 L 183.210938 164.351562 L 201.628906 71.828125 L 183.210938 68.160156 L 183.210938 77.9375 Z M 189.746094 79.234375 "/>
<path style=" stroke:none;fill-rule:nonzero;fill:rgb(50.196078%,0%,50.196078%);fill-opacity:1;" d="M 136.847656 59.582031 L 67.242188 59.582031 L 67.242188 188.769531 L 179.949219 188.769531 L 179.949219 59.582031 Z M 169.738281 75.902344 L 169.738281 159.449219 L 77.449219 159.449219 L 77.449219 69.171875 L 169.738281 69.171875 Z M 169.738281 75.902344 "/>
<path style=" stroke:none;fill-rule:nonzero;fill:rgb(50.196078%,0%,50.196078%);fill-opacity:1;" d="M 108.03125 146.9375 L 139.0625 146.9375 C 138.105469 145.695312 137.335938 144.441406 136.6875 143.21875 L 110.40625 143.21875 C 109.765625 144.441406 108.988281 145.695312 108.03125 146.9375 Z M 108.03125 146.9375 "/>
<path style=" stroke:none;fill-rule:nonzero;fill:rgb(50.196078%,0%,50.196078%);fill-opacity:1;" d="M 111.414062 141.089844 L 135.683594 141.089844 C 135.105469 139.726562 134.703125 138.457031 134.421875 137.375 L 112.671875 137.375 C 112.390625 138.460938 111.988281 139.722656 111.414062 141.089844 Z M 111.414062 141.089844 "/>
<path style=" stroke:none;fill-rule:nonzero;fill:rgb(50.196078%,0%,50.196078%);fill-opacity:1;" d="M 113.335938 133.75 L 113.328125 133.75 C 113.328125 133.75 113.292969 134.3125 113.132812 135.246094 L 133.960938 135.246094 C 133.832031 134.46875 133.78125 133.953125 133.773438 133.808594 C 134.773438 133.058594 135.71875 132.28125 136.582031 131.527344 L 110.605469 131.527344 C 111.449219 132.265625 112.367188 133.023438 113.335938 133.75 Z M 113.335938 133.75 "/>
<path style=" stroke:none;fill-rule:nonzero;fill:rgb(50.196078%,0%,50.196078%);fill-opacity:1;" d="M 96.371094 114.25 C 96.933594 115.449219 97.535156 116.5625 98.449219 117.539062 C 98.5 117.59375 98.558594 117.652344 98.609375 117.707031 L 148.585938 117.707031 C 148.632812 117.652344 148.691406 117.59375 148.742188 117.539062 C 149.652344 116.5625 150.257812 115.449219 150.820312 114.25 C 150.859375 114.167969 150.890625 114.074219 150.925781 113.988281 L 96.265625 113.988281 C 96.304688 114.074219 96.328125 114.164062 96.371094 114.25 Z M 96.371094 114.25 "/>
<path style=" stroke:none;fill-rule:nonzero;fill:rgb(50.196078%,0%,50.196078%);fill-opacity:1;" d="M 103.816406 94.320312 L 143.375 94.320312 C 142.515625 92.980469 141.519531 91.734375 140.394531 90.601562 L 106.796875 90.601562 C 105.671875 91.734375 104.671875 92.980469 103.816406 94.320312 Z M 103.816406 94.320312 "/>
<path style=" stroke:none;fill-rule:nonzero;fill:rgb(50.196078%,0%,50.196078%);fill-opacity:1;" d="M 137.933594 88.472656 C 135.796875 86.855469 133.378906 85.585938 130.769531 84.753906 L 116.421875 84.753906 C 113.816406 85.585938 111.394531 86.859375 109.257812 88.472656 Z M 137.933594 88.472656 "/>
<path style=" stroke:none;fill-rule:nonzero;fill:rgb(50.196078%,0%,50.196078%);fill-opacity:1;" d="M 101.203125 100.167969 L 145.980469 100.167969 C 145.636719 98.875 145.152344 97.636719 144.570312 96.445312 L 102.621094 96.445312 C 102.035156 97.636719 101.554688 98.875 101.203125 100.167969 Z M 101.203125 100.167969 "/>
<path style=" stroke:none;fill-rule:nonzero;fill:rgb(50.196078%,0%,50.196078%);fill-opacity:1;" d="M 104.570312 123.554688 L 142.621094 123.554688 C 142.976562 122.460938 143.390625 121.175781 143.816406 119.835938 L 103.378906 119.835938 C 103.800781 121.175781 104.214844 122.460938 104.570312 123.554688 Z M 104.570312 123.554688 "/>
<path style=" stroke:none;fill-rule:nonzero;fill:rgb(50.196078%,0%,50.196078%);fill-opacity:1;" d="M 100.660156 108.320312 C 100.332031 108.195312 99.945312 108.148438 99.554688 108.140625 L 99.238281 108.140625 C 98.84375 108.152344 98.453125 108.195312 98.121094 108.269531 C 96.441406 108.609375 95.558594 110.226562 95.675781 111.859375 L 151.515625 111.859375 C 151.628906 110.226562 150.746094 108.613281 149.070312 108.269531 C 148.730469 108.195312 148.339844 108.152344 147.949219 108.140625 L 147.628906 108.140625 C 147.238281 108.148438 146.859375 108.195312 146.527344 108.320312 C 146.53125 108.257812 146.53125 108.199219 146.542969 108.140625 L 100.644531 108.140625 C 100.652344 108.199219 100.65625 108.257812 100.660156 108.320312 Z M 100.660156 108.320312 "/>
<path style=" stroke:none;fill-rule:nonzero;fill:rgb(50.196078%,0%,50.196078%);fill-opacity:1;" d="M 100.523438 106.011719 L 146.664062 106.011719 C 146.695312 104.746094 146.632812 103.503906 146.445312 102.292969 L 100.75 102.292969 C 100.558594 103.503906 100.492188 104.746094 100.523438 106.011719 Z M 100.523438 106.011719 "/>
<path style=" stroke:none;fill-rule:nonzero;fill:rgb(50.196078%,0%,50.196078%);fill-opacity:1;" d="M 105.554688 126.546875 C 105.554688 126.546875 106.601562 127.757812 108.292969 129.398438 L 138.894531 129.398438 C 140.589844 127.757812 141.640625 126.546875 141.640625 126.546875 C 141.640625 126.546875 141.746094 126.210938 141.921875 125.679688 L 105.265625 125.679688 C 105.441406 126.210938 105.554688 126.546875 105.554688 126.546875 Z M 105.554688 126.546875 "/>
<path style=" stroke:none;fill-rule:nonzero;fill:rgb(50.196078%,0%,50.196078%);fill-opacity:1;" d="M 147.632812 108.140625 L 147.949219 108.140625 C 147.84375 108.136719 147.742188 108.136719 147.632812 108.140625 Z M 147.632812 108.140625 "/>
<path style=" stroke:none;fill-rule:nonzero;fill:rgb(50.196078%,0%,50.196078%);fill-opacity:1;" d="M 99.238281 108.140625 L 99.554688 108.140625 C 99.449219 108.136719 99.34375 108.136719 99.238281 108.140625 Z M 99.238281 108.140625 "/>
</g>
</svg>
