<?xml version="1.0" encoding="UTF-8" standalone="no"?>
<!-- Created with Inkscape (http://www.inkscape.org/) -->

<svg
   xmlns:dc="http://purl.org/dc/elements/1.1/"
   xmlns:cc="http://creativecommons.org/ns#"
   xmlns:rdf="http://www.w3.org/1999/02/22-rdf-syntax-ns#"
   xmlns:svg="http://www.w3.org/2000/svg"
   xmlns="http://www.w3.org/2000/svg"
   xmlns:sodipodi="http://sodipodi.sourceforge.net/DTD/sodipodi-0.dtd"
   xmlns:inkscape="http://www.inkscape.org/namespaces/inkscape"
   width="250mm"
   height="250mm"
   viewBox="0 0 885.82677 885.82677"
   id="svg2"
   version="1.1"
   inkscape:version="0.91 r13725"
   sodipodi:docname="icon.svg"
   inkscape:export-filename="D:\Programming\Repositories\jrbeverly.icons\src\profile\icon.png"
   inkscape:export-xdpi="20.32"
   inkscape:export-ydpi="20.32">
  <defs
     id="defs4" />
  <sodipodi:namedview
     id="base"
     pagecolor="#f9f9f9"
     bordercolor="#666666"
     borderopacity="1.0"
     inkscape:pageopacity="0"
     inkscape:pageshadow="2"
     inkscape:zoom="0.9899495"
     inkscape:cx="412.29542"
     inkscape:cy="434.14212"
     inkscape:document-units="px"
     inkscape:current-layer="layer1"
     showgrid="false"
     inkscape:window-width="1920"
     inkscape:window-height="1017"
     inkscape:window-x="1912"
     inkscape:window-y="-8"
     inkscape:window-maximized="1" />
  <metadata
     id="metadata7">
    <rdf:RDF>
      <cc:Work
         rdf:about="">
        <dc:format>image/svg+xml</dc:format>
        <dc:type
           rdf:resource="http://purl.org/dc/dcmitype/StillImage" />
        <dc:title></dc:title>
      </cc:Work>
    </rdf:RDF>
  </metadata>
  <g
     inkscape:label="Layer 1"
     inkscape:groupmode="layer"
     id="layer1"
     transform="translate(0,-166.53538)">
    <path
       style="fill:#fc5652;fill-opacity:1"
       d="m 134.07107,684.32554 0,-40.08737 40.08741,0 40.08734,0 0,40.08737 0,40.08737 -40.08734,0 -40.08741,0 0,-40.08737 z"
       id="path4183"
       inkscape:connector-curvature="0" />
    <path
       style="fill:#e2e8e7;fill-opacity:1"
       d="m 240.97073,684.32554 0,-40.08737 40.08737,0 40.08737,0 0,40.08737 0,40.08737 -40.08737,0 -40.08737,0 0,-40.08737 z"
       id="path4181"
       inkscape:connector-curvature="0" />
    <path
       style="fill:#fc5652;fill-opacity:1"
       d="m 347.87038,684.32554 0,-40.08737 40.08737,0 40.08736,0 0,40.08737 0,40.08737 -40.08736,0 -40.08737,0 0,-40.08737 z"
       id="path4179"
       inkscape:connector-curvature="0" />
    <path
       style="fill:#e2e8e7;fill-opacity:1"
       d="m 454.77003,684.32554 0,-40.08737 40.08736,0 40.08737,0 0,40.08737 0,40.08737 -40.08737,0 -40.08736,0 0,-40.08737 z"
       id="path4177"
       inkscape:connector-curvature="0" />
    <path
       style="fill:#f6c574;fill-opacity:1"
       d="m 561.66967,684.32554 0,-40.08737 40.08737,0 40.08737,0 0,40.08737 0,40.08737 -40.08737,0 -40.08737,0 0,-40.08737 z"
       id="path4175"
       inkscape:connector-curvature="0" />
    <path
       style="fill:#f6c574;fill-opacity:1"
       d="m 668.56932,684.32554 0,-40.08737 40.08736,0 40.08737,0 0,40.08737 0,40.08737 -40.08737,0 -40.08736,0 0,-40.08737 z"
       id="path4173"
       inkscape:connector-curvature="0" />
    <path
       style="fill:#e2e8e7;fill-opacity:1"
       d="m 134.07107,577.42589 0,-40.08736 40.08741,0 40.08734,0 0,40.08736 0,40.08737 -40.08734,0 -40.08741,0 0,-40.08737 z"
       id="path4171"
       inkscape:connector-curvature="0" />
    <path
       style="fill:#00b39f;fill-opacity:1"
       d="m 240.97073,577.42589 0,-40.08736 40.08737,0 40.08737,0 0,40.08736 0,40.08737 -40.08737,0 -40.08737,0 0,-40.08737 z"
       id="path4169"
       inkscape:connector-curvature="0" />
    <path
       style="fill:#00abcd;fill-opacity:1"
       d="m 347.87038,577.42589 0,-40.08736 40.08737,0 40.08736,0 0,40.08736 0,40.08737 -40.08736,0 -40.08737,0 0,-40.08737 z"
       id="path4167"
       inkscape:connector-curvature="0" />
    <path
       style="fill:#00b39f;fill-opacity:1"
       d="m 454.77003,577.42589 0,-40.08736 40.08736,0 40.08737,0 0,40.08736 0,40.08737 -40.08737,0 -40.08736,0 0,-40.08737 z"
       id="path4165"
       inkscape:connector-curvature="0" />
    <path
       style="fill:#00b39f;fill-opacity:1"
       d="m 561.66967,577.42589 0,-40.08736 40.08737,0 40.08737,0 0,40.08736 0,40.08737 -40.08737,0 -40.08737,0 0,-40.08737 z"
       id="path4163"
       inkscape:connector-curvature="0" />
    <path
       style="fill:#e2e8e7;fill-opacity:1"
       d="m 668.56932,577.42589 0,-40.08736 40.08736,0 40.08737,0 0,40.08736 0,40.08737 -40.08737,0 -40.08736,0 0,-40.08737 z"
       id="path4161"
       inkscape:connector-curvature="0" />
    <path
       style="fill:#00abcd;fill-opacity:1"
       d="m 134.07107,470.52625 0,-40.08736 40.08741,0 40.08734,0 0,40.08736 0,40.08737 -40.08734,0 -40.08741,0 0,-40.08737 z"
       id="path4159"
       inkscape:connector-curvature="0" />
    <path
       style="fill:#00b3a0;fill-opacity:1"
       d="m 240.97073,470.52625 0,-40.08736 40.08737,0 40.08737,0 0,40.08736 0,40.08737 -40.08737,0 -40.08737,0 0,-40.08737 z"
       id="path4157"
       inkscape:connector-curvature="0" />
    <path
       style="fill:#f6c574;fill-opacity:1"
       d="m 347.87038,470.52625 0,-40.08736 40.08737,0 40.08736,0 0,40.08736 0,40.08737 -40.08736,0 -40.08737,0 0,-40.08737 z"
       id="path4155"
       inkscape:connector-curvature="0" />
    <path
       style="fill:#e2e8e7;fill-opacity:1"
       d="m 454.77003,470.52625 0,-40.08736 40.08736,0 40.08737,0 0,40.08736 0,40.08737 -40.08737,0 -40.08736,0 0,-40.08737 z"
       id="path4153"
       inkscape:connector-curvature="0" />
    <path
       style="fill:#fc5652;fill-opacity:1"
       d="m 561.66967,470.52625 0,-40.08736 40.08737,0 40.08737,0 0,40.08736 0,40.08737 -40.08737,0 -40.08737,0 0,-40.08737 z"
       id="path4151"
       inkscape:connector-curvature="0" />
    <path
       style="fill:#f6c574;fill-opacity:1"
       d="m 668.56932,470.52625 0,-40.08736 40.08736,0 40.08737,0 0,40.08736 0,40.08737 -40.08737,0 -40.08736,0 0,-40.08737 z"
       id="path4147"
       inkscape:connector-curvature="0" />
  </g>
</svg>
