<svg xmlns="http://www.w3.org/2000/svg" viewBox="0 0 50 50" width="100" height="100">
    <path style="line-height:normal;text-indent:0;text-align:start;text-decoration-line:none;text-decoration-style:solid;text-decoration-color:#000;text-transform:none;block-progression:tb;isolation:auto;mix-blend-mode:normal" d="M 25 3 C 12.861562 3 3 12.861562 3 25 C 3 33.169553 7.4718953 40.296112 14.091797 44.087891 A 1.0001 1.0001 0 0 0 15.457031 43.716797 L 20.414062 35.041016 A 1.0001 1.0001 0 0 0 20.042969 33.675781 C 17.032893 31.951581 15 28.723356 15 25 C 15 19.465466 19.465466 15 25 15 C 30.534534 15 35 19.465466 35 25 C 35 28.723356 32.967107 31.951581 29.957031 33.675781 A 1.0001 1.0001 0 0 0 29.585938 35.041016 L 34.542969 43.716797 A 1.0001 1.0001 0 0 0 35.908203 44.087891 C 42.528105 40.296112 47 33.169553 47 25 C 47 12.861562 37.138438 3 25 3 z M 25 5 C 36.057562 5 45 13.942438 45 25 C 45 32.07695 41.258248 38.188685 35.71875 41.744141 L 31.753906 34.802734 C 34.8877 32.638313 37 29.090618 37 25 C 37 18.384534 31.615466 13 25 13 C 18.384534 13 13 18.384534 13 25 C 13 29.090618 15.1123 32.638313 18.246094 34.802734 L 14.28125 41.744141 C 8.7417519 38.188685 5 32.07695 5 25 C 5 13.942438 13.942438 5 25 5 z M 25 19 C 21.698375 19 19 21.698375 19 25 C 19 27.485566 20.565058 29.545319 22.730469 30.451172 L 19.832031 45.388672 A 1.0001 1.0001 0 0 0 20.615234 46.560547 C 22.031936 46.847447 23.498125 47 25 47 C 26.501875 47 27.967203 46.84741 29.384766 46.560547 A 1.0001 1.0001 0 0 0 30.160156 45.347656 C 29.364988 42.007202 28.126249 35.471941 27.203125 30.482422 C 29.405485 29.592881 31 27.511579 31 25 C 31 21.698375 28.301625 19 25 19 z M 25 21 C 27.220375 21 29 22.779625 29 25 C 29 26.926607 27.649344 28.514205 25.851562 28.904297 A 1.0001 1.0001 0 0 0 25.080078 30.0625 C 25.948902 34.779639 27.132774 40.899943 27.994141 44.699219 C 27.010123 44.848766 26.025604 45 25 45 C 23.973072 45 22.986699 44.84913 22.001953 44.699219 L 24.845703 30.048828 A 1.0001 1.0001 0 0 0 24.091797 28.884766 C 22.321388 28.470977 21 26.904106 21 25 C 21 22.779625 22.779625 21 25 21 z" color="#000" font-weight="400" font-family="sans-serif" white-space="normal" overflow="visible"/>
</svg>