<?xml version="1.0" encoding="UTF-8"?>
<svg xmlns="http://www.w3.org/2000/svg" xmlns:xlink="http://www.w3.org/1999/xlink" width="256pt" height="256pt" viewBox="0 0 256 256" version="1.1">
<g id="surface1">
<path style=" stroke:none;fill-rule:nonzero;fill:rgb(0%,0%,0%);fill-opacity:1;" d="M 127.976562 0.03125 C 93.605469 0.03125 62.03125 13.128906 37.671875 37.484375 C 13.316406 61.839844 0.21875 93.417969 0.21875 127.789062 C 0.21875 162.160156 13.316406 193.734375 37.671875 218.089844 C 58.125 238.542969 83.6875 251.058594 112.617188 254.78125 C 123.976562 256.246094 141.390625 255.503906 153.804688 253.03125 C 198.496094 244.125 236.679688 209.507812 250.0625 165.765625 C 264.101562 119.871094 252.058594 71.261719 218.28125 37.484375 C 193.921875 13.128906 162.347656 0.03125 127.976562 0.03125 Z M 126.8125 10.050781 C 145.300781 9.882812 163.777344 14.070312 180.617188 22.507812 C 203.695312 34.070312 221.695312 52.066406 233.257812 75.148438 C 249.878906 108.324219 249.878906 147.253906 233.257812 180.429688 C 227.457031 192.003906 221.679688 200.144531 212.476562 209.703125 C 193.003906 229.929688 167.222656 242.261719 138.546875 245.0625 C 117.160156 247.152344 95.089844 242.964844 75.335938 233.066406 C 63.757812 227.269531 55.621094 221.492188 46.0625 212.289062 C 9.191406 176.796875 -0.304688 121.058594 22.695312 75.148438 C 36.523438 47.550781 60.273438 26.671875 89.363281 16.546875 C 101.507812 12.320312 114.164062 10.167969 126.8125 10.050781 Z M 126.8125 10.050781 "/>
<path style=" stroke:none;fill-rule:nonzero;fill:rgb(0%,0%,0%);fill-opacity:1;" d="M 96.769531 191.480469 L 67.183594 191.480469 C 61.730469 191.480469 57.324219 187.0625 57.324219 181.617188 L 57.324219 152.03125 C 57.324219 146.589844 61.730469 142.171875 67.183594 142.171875 L 96.769531 142.171875 C 102.222656 142.171875 106.632812 146.589844 106.632812 152.03125 L 106.632812 181.617188 C 106.632812 187.0625 102.222656 191.480469 96.769531 191.480469 Z M 77.046875 171.753906 L 86.910156 171.753906 L 86.910156 161.894531 L 77.046875 161.894531 Z M 77.046875 171.753906 "/>
<path style=" stroke:none;fill-rule:nonzero;fill:rgb(0%,0%,0%);fill-opacity:1;" d="M 96.769531 102.722656 L 67.195312 102.722656 C 61.742188 102.722656 57.332031 98.304688 57.332031 92.859375 L 57.332031 63.265625 C 57.332031 60.652344 58.367188 58.136719 60.222656 56.292969 C 62.078125 54.449219 64.570312 53.402344 67.195312 53.402344 L 96.769531 53.414062 C 102.222656 53.414062 106.632812 57.832031 106.632812 63.273438 L 106.632812 92.859375 C 106.632812 98.304688 102.222656 102.722656 96.769531 102.722656 Z M 77.054688 83 L 86.910156 83 L 86.910156 73.136719 L 77.054688 73.136719 Z M 77.054688 83 "/>
<path style=" stroke:none;fill-rule:nonzero;fill:rgb(0%,0%,0%);fill-opacity:1;" d="M 185.527344 102.722656 L 155.941406 102.722656 C 150.488281 102.722656 146.078125 98.304688 146.078125 92.859375 L 146.078125 63.265625 C 146.078125 57.820312 150.488281 53.402344 155.941406 53.402344 L 185.527344 53.402344 C 190.980469 53.402344 195.390625 57.820312 195.390625 63.265625 L 195.390625 92.859375 C 195.390625 98.304688 190.980469 102.722656 185.527344 102.722656 Z M 165.804688 83 L 175.664062 83 L 175.664062 73.128906 L 165.804688 73.128906 Z M 165.804688 83 "/>
<path style=" stroke:none;fill-rule:nonzero;fill:rgb(0%,0%,0%);fill-opacity:1;" d="M 96.769531 127.378906 C 96.769531 135.546875 90.148438 142.171875 81.976562 142.171875 C 73.808594 142.171875 67.183594 135.546875 67.183594 127.378906 C 67.183594 119.207031 73.808594 112.585938 81.976562 112.585938 C 90.148438 112.585938 96.769531 119.207031 96.769531 127.378906 Z M 96.769531 127.378906 "/>
<path style=" stroke:none;fill-rule:nonzero;fill:rgb(0%,0%,0%);fill-opacity:1;" d="M 136.21875 107.652344 C 136.21875 115.824219 129.59375 122.445312 121.425781 122.445312 C 113.253906 122.445312 106.632812 115.824219 106.632812 107.652344 C 106.632812 99.484375 113.253906 92.859375 121.425781 92.859375 C 129.59375 92.859375 136.21875 99.484375 136.21875 107.652344 Z M 136.21875 107.652344 "/>
<path style=" stroke:none;fill-rule:nonzero;fill:rgb(0%,0%,0%);fill-opacity:1;" d="M 146.078125 78.066406 C 146.078125 86.238281 139.457031 92.859375 131.285156 92.859375 C 123.117188 92.859375 116.492188 86.238281 116.492188 78.066406 C 116.492188 69.898438 123.117188 63.273438 131.285156 63.273438 C 139.457031 63.273438 146.078125 69.898438 146.078125 78.066406 Z M 146.078125 78.066406 "/>
<path style=" stroke:none;fill-rule:nonzero;fill:rgb(0%,0%,0%);fill-opacity:1;" d="M 195.390625 127.378906 C 195.390625 135.546875 188.765625 142.171875 180.597656 142.171875 C 172.425781 142.171875 165.804688 135.546875 165.804688 127.378906 C 165.804688 119.207031 172.425781 112.585938 180.597656 112.585938 C 188.765625 112.585938 195.390625 119.207031 195.390625 127.378906 Z M 195.390625 127.378906 "/>
<path style=" stroke:none;fill-rule:nonzero;fill:rgb(0%,0%,0%);fill-opacity:1;" d="M 165.804688 137.238281 C 165.804688 145.410156 159.179688 152.03125 151.011719 152.03125 C 142.839844 152.03125 136.21875 145.410156 136.21875 137.238281 C 136.21875 129.070312 142.839844 122.445312 151.011719 122.445312 C 159.179688 122.445312 165.804688 129.070312 165.804688 137.238281 Z M 165.804688 137.238281 "/>
<path style=" stroke:none;fill-rule:nonzero;fill:rgb(0%,0%,0%);fill-opacity:1;" d="M 175.664062 176.6875 C 175.664062 184.855469 169.042969 191.480469 160.871094 191.480469 C 152.703125 191.480469 146.078125 184.855469 146.078125 176.6875 C 146.078125 168.515625 152.703125 161.894531 160.871094 161.894531 C 169.042969 161.894531 175.664062 168.515625 175.664062 176.6875 Z M 175.664062 176.6875 "/>
<path style=" stroke:none;fill-rule:nonzero;fill:rgb(0%,0%,0%);fill-opacity:1;" d="M 146.078125 166.824219 C 146.078125 174.996094 139.457031 181.617188 131.285156 181.617188 C 123.117188 181.617188 116.492188 174.996094 116.492188 166.824219 C 116.492188 158.65625 123.117188 152.03125 131.285156 152.03125 C 139.457031 152.03125 146.078125 158.65625 146.078125 166.824219 Z M 146.078125 166.824219 "/>
</g>
</svg>
