<?xml version="1.0" encoding="UTF-8" standalone="no"?>
<!-- Created with Inkscape (http://www.inkscape.org/) -->

<svg
   xmlns:dc="http://purl.org/dc/elements/1.1/"
   xmlns:cc="http://creativecommons.org/ns#"
   xmlns:rdf="http://www.w3.org/1999/02/22-rdf-syntax-ns#"
   xmlns:svg="http://www.w3.org/2000/svg"
   xmlns="http://www.w3.org/2000/svg"
   xmlns:sodipodi="http://sodipodi.sourceforge.net/DTD/sodipodi-0.dtd"
   xmlns:inkscape="http://www.inkscape.org/namespaces/inkscape"
   version="1.0"
   width="182.72672"
   height="180.40215"
   id="svg2"
   sodipodi:version="0.32"
   inkscape:version="0.91 r13725"
   sodipodi:docname="icon.svg"
   inkscape:export-filename="D:\Programming\Repositories\jrbeverly.icons\src\friending\icon.png"
   inkscape:export-xdpi="98.280426"
   inkscape:export-ydpi="98.280426">
  <metadata
     id="metadata37">
    <rdf:RDF>
      <cc:Work
         rdf:about="">
        <dc:format>image/svg+xml</dc:format>
        <dc:type
           rdf:resource="http://purl.org/dc/dcmitype/StillImage" />
        <dc:title>Atom Symbol</dc:title>
        <dc:date>4 October 2006</dc:date>
        <dc:creator>
          <cc:Agent>
            <dc:title>Andrew Mike</dc:title>
          </cc:Agent>
        </dc:creator>
        <cc:license
           rdf:resource="http://web.resource.org/cc/PublicDomain" />
      </cc:Work>
      <cc:License
         rdf:about="http://web.resource.org/cc/PublicDomain">
        <cc:permits
           rdf:resource="http://web.resource.org/cc/Reproduction" />
        <cc:permits
           rdf:resource="http://web.resource.org/cc/Distribution" />
        <cc:permits
           rdf:resource="http://web.resource.org/cc/DerivativeWorks" />
      </cc:License>
    </rdf:RDF>
  </metadata>
  <sodipodi:namedview
     inkscape:window-height="1017"
     inkscape:window-width="1920"
     inkscape:pageshadow="2"
     inkscape:pageopacity="0"
     guidetolerance="10.0"
     gridtolerance="10.0"
     objecttolerance="10.0"
     borderopacity="1.0"
     bordercolor="#666666"
     pagecolor="#ffffff"
     id="base"
     inkscape:zoom="2.6728636"
     inkscape:cx="123.85516"
     inkscape:cy="43.090612"
     inkscape:window-x="1912"
     inkscape:window-y="-8"
     inkscape:current-layer="svg2"
     showgrid="false"
     inkscape:window-maximized="1"
     fit-margin-top="0"
     fit-margin-left="0"
     fit-margin-right="0"
     fit-margin-bottom="0"
     showguides="false" />
  <defs
     id="defs4" />
  <g
     inkscape:groupmode="layer"
     id="layer2"
     inkscape:label="Layer 2"
     transform="translate(0,-1.7618796)" />
  <g
     inkscape:groupmode="layer"
     id="layer1"
     inkscape:label="Layer 1"
     transform="translate(0,-1.7618796)" />
  <path
     inkscape:connector-curvature="0"
     id="path3682-1"
     style="fill:#ffffff;fill-opacity:1;stroke:none;stroke-width:6.608603;stroke-miterlimit:4;stroke-dasharray:none;stroke-opacity:1"
     d="m 110.42157,89.705895 a 20.228006,86.896813 0 0 1 -40.45601,0 20.228006,86.896813 0 1 1 40.45601,0 z" />
  <path
     inkscape:connector-curvature="0"
     id="path4601-8"
     style="fill:none;fill-opacity:1;stroke:none;stroke-width:6.608603;stroke-miterlimit:4;stroke-dasharray:none;stroke-opacity:1"
     d="M 105.32108,101.2071 A 20.228006,86.896833 45 0 1 76.71436,72.600375 20.228006,86.896833 45 1 1 105.32108,101.2071 Z" />
  <path
     inkscape:connector-curvature="0"
     id="path4603-2"
     style="fill:#ffffff;fill-opacity:1;stroke:none;stroke-width:6.608603;stroke-miterlimit:4;stroke-dasharray:none;stroke-opacity:1"
     d="m 92.18323,107.12852 a 88.059096,20.224761 0 1 1 0,-40.449525 88.059096,20.224761 0 0 1 0,40.449525 z" />
  <path
     inkscape:connector-curvature="0"
     id="path3682"
     style="fill:none;fill-opacity:1;stroke:#467fd7;stroke-width:6.608603;stroke-miterlimit:4;stroke-dasharray:none;stroke-opacity:1"
     d="m 109.64279,90.245494 a 20.228006,86.896813 0 0 1 -40.456005,0 20.228006,86.896813 0 1 1 40.456005,0 z" />
  <path
     inkscape:connector-curvature="0"
     id="path4599"
     style="fill:none;fill-opacity:1;stroke:#467fd7;stroke-width:6.608603;stroke-miterlimit:4;stroke-dasharray:none;stroke-opacity:1"
     d="M 104.54229,73.139974 A 86.896795,20.228004 45 0 1 75.935573,101.74669 86.896795,20.228004 45 0 1 104.54229,73.139974 Z" />
  <path
     inkscape:connector-curvature="0"
     id="path4601"
     style="fill:none;fill-opacity:1;stroke:#467fd7;stroke-width:6.608603;stroke-miterlimit:4;stroke-dasharray:none;stroke-opacity:1"
     d="M 104.54231,101.74669 A 20.228006,86.896834 45 0 1 75.935587,73.139974 20.228006,86.896834 45 1 1 104.54231,101.74669 Z" />
  <path
     inkscape:connector-curvature="0"
     id="path4603"
     style="fill:none;fill-opacity:1;stroke:#467fd7;stroke-width:6.608603;stroke-miterlimit:4;stroke-dasharray:none;stroke-opacity:1"
     d="m 91.404459,107.66811 a 88.059096,20.224761 0 1 1 0,-40.449513 88.059096,20.224761 0 0 1 0,40.449513 z" />
  <path
     inkscape:connector-curvature="0"
     id="path3690"
     style="opacity:1;fill:#467fd7;fill-opacity:1;stroke:none;stroke-opacity:1"
     d="m 100.60928,87.808103 a 10.256745,10.489861 0 0 1 -20.513488,0 10.256745,10.489861 0 1 1 20.513488,0 z" />
</svg>
